<?xml version="1.0" encoding="UTF-8" standalone="no"?><svg xmlns="http://www.w3.org/2000/svg" xmlns:xlink="http://www.w3.org/1999/xlink" contentScriptType="application/ecmascript" contentStyleType="text/css" height="504px" preserveAspectRatio="none" style="width:1172px;height:504px;" version="1.1" viewBox="0 0 1172 504" width="1172px" zoomAndPan="magnify"><defs><filter height="300%" id="f5w8j9bcls688" width="300%" x="-1" y="-1"><feGaussianBlur result="blurOut" stdDeviation="2.0"/><feColorMatrix in="blurOut" result="blurOut2" type="matrix" values="0 0 0 0 0 0 0 0 0 0 0 0 0 0 0 0 0 0 .4 0"/><feOffset dx="4.0" dy="4.0" in="blurOut2" result="blurOut3"/><feBlend in="SourceGraphic" in2="blurOut3" mode="normal"/></filter></defs><g><!--MD5=[7369e6833c991dddf9fa7b7e68088b02]
cluster edu.kit.kastel.sdq.lissa.ratlr.evaluator--><polygon fill="#FFFFFF" filter="url(#f5w8j9bcls688)" points="22,24,290,24,297,49.0679,1150,49.0679,1150,492,22,492,22,24" style="stroke: #000000; stroke-width: 1.5;"/><line style="stroke: #000000; stroke-width: 1.5;" x1="22" x2="297" y1="49.0679" y2="49.0679"/><text fill="#000000" font-family="sans-serif" font-size="14" font-weight="bold" lengthAdjust="spacingAndGlyphs" textLength="262" x="26" y="40.9659">edu.kit.kastel.sdq.lissa.ratlr.evaluator</text><!--MD5=[30bbeb68543df6a100a3c1d86b2355cb]
class edu.kit.kastel.sdq.lissa.ratlr.evaluator.UCBanditEvaluator--><rect fill="#FEFECE" filter="url(#f5w8j9bcls688)" height="77.9638" id="edu.kit.kastel.sdq.lissa.ratlr.evaluator.UCBanditEvaluator" style="stroke: #A80036; stroke-width: 1.5;" width="342" x="38" y="222.5"/><ellipse cx="151.75" cy="238.5" fill="#ADD1B2" rx="11" ry="11" style="stroke: #A80036; stroke-width: 1.0;"/><path d="M154.7188,244.1406 Q154.1406,244.4375 153.5,244.5781 Q152.8594,244.7344 152.1563,244.7344 Q149.6563,244.7344 148.3281,243.0938 Q147.0156,241.4375 147.0156,238.3125 Q147.0156,235.1875 148.3281,233.5313 Q149.6563,231.875 152.1563,231.875 Q152.8594,231.875 153.5,232.0313 Q154.1563,232.1875 154.7188,232.4844 L154.7188,235.2031 Q154.0938,234.625 153.5,234.3594 Q152.9063,234.0781 152.2813,234.0781 Q150.9375,234.0781 150.25,235.1563 Q149.5625,236.2188 149.5625,238.3125 Q149.5625,240.4063 150.25,241.4844 Q150.9375,242.5469 152.2813,242.5469 Q152.9063,242.5469 153.5,242.2813 Q154.0938,242 154.7188,241.4219 L154.7188,244.1406 Z "/><text fill="#000000" font-family="sans-serif" font-size="12" lengthAdjust="spacingAndGlyphs" textLength="106" x="172.25" y="243.156">UCBanditEvaluator</text><line style="stroke: #A80036; stroke-width: 1.5;" x1="39" x2="379" y1="254.5" y2="254.5"/><line style="stroke: #A80036; stroke-width: 1.5;" x1="39" x2="379" y1="262.5" y2="262.5"/><ellipse cx="49" cy="273.5" fill="#84BE84" rx="3" ry="3" style="stroke: #038048; stroke-width: 1.0;"/><text fill="#000000" font-family="sans-serif" font-size="11" lengthAdjust="spacingAndGlyphs" textLength="268" x="58" y="278.2589">«Create» UCBanditEvaluator(ModuleConfiguration)</text><ellipse cx="49" cy="288.4819" fill="#84BE84" rx="3" ry="3" style="stroke: #038048; stroke-width: 1.0;"/><text fill="#000000" font-family="sans-serif" font-size="11" lengthAdjust="spacingAndGlyphs" textLength="316" x="58" y="293.2408">List&lt;Double&gt; call(List&lt;String&gt;,List&lt;ClassificationTask&gt;,Metric)</text><!--MD5=[634c27c0465422853ef683bdf1b3e1a2]
class edu.kit.kastel.sdq.lissa.ratlr.evaluator.UCBanditEvaluator$UCBBandits--><rect fill="#FEFECE" filter="url(#f5w8j9bcls688)" height="107.9276" id="edu.kit.kastel.sdq.lissa.ratlr.evaluator.UCBanditEvaluator$UCBBandits" style="stroke: #A80036; stroke-width: 1.5;" width="248" x="85" y="368"/><ellipse cx="116.2" cy="384" fill="#ADD1B2" rx="11" ry="11" style="stroke: #A80036; stroke-width: 1.0;"/><path d="M119.1688,389.6406 Q118.5906,389.9375 117.95,390.0781 Q117.3094,390.2344 116.6063,390.2344 Q114.1063,390.2344 112.7781,388.5938 Q111.4656,386.9375 111.4656,383.8125 Q111.4656,380.6875 112.7781,379.0313 Q114.1063,377.375 116.6063,377.375 Q117.3094,377.375 117.95,377.5313 Q118.6063,377.6875 119.1688,377.9844 L119.1688,380.7031 Q118.5438,380.125 117.95,379.8594 Q117.3563,379.5781 116.7313,379.5781 Q115.3875,379.5781 114.7,380.6563 Q114.0125,381.7188 114.0125,383.8125 Q114.0125,385.9063 114.7,386.9844 Q115.3875,388.0469 116.7313,388.0469 Q117.3563,388.0469 117.95,387.7813 Q118.5438,387.5 119.1688,386.9219 L119.1688,389.6406 Z "/><text fill="#000000" font-family="sans-serif" font-size="12" lengthAdjust="spacingAndGlyphs" textLength="180" x="133.8" y="388.656">UCBanditEvaluator$UCBBandits</text><line style="stroke: #A80036; stroke-width: 1.5;" x1="86" x2="332" y1="400" y2="400"/><line style="stroke: #A80036; stroke-width: 1.5;" x1="86" x2="332" y1="408" y2="408"/><ellipse cx="96" cy="419" fill="#84BE84" rx="3" ry="3" style="stroke: #038048; stroke-width: 1.0;"/><text fill="#000000" font-family="sans-serif" font-size="11" lengthAdjust="spacingAndGlyphs" textLength="222" x="105" y="423.7589">«Create» UCBBandits(int,int,double,String)</text><ellipse cx="96" cy="433.9819" fill="#84BE84" rx="3" ry="3" style="stroke: #038048; stroke-width: 1.0;"/><text fill="#000000" font-family="sans-serif" font-size="11" lengthAdjust="spacingAndGlyphs" textLength="139" x="105" y="438.7408">void update(int[],double[])</text><ellipse cx="96" cy="448.9638" fill="#84BE84" rx="3" ry="3" style="stroke: #038048; stroke-width: 1.0;"/><text fill="#000000" font-family="sans-serif" font-size="11" lengthAdjust="spacingAndGlyphs" textLength="105" x="105" y="453.7227">double[] getScores()</text><ellipse cx="96" cy="463.9457" fill="#84BE84" rx="3" ry="3" style="stroke: #038048; stroke-width: 1.0;"/><text fill="#000000" font-family="sans-serif" font-size="11" lengthAdjust="spacingAndGlyphs" textLength="146" x="105" y="468.7046">List&lt;Integer&gt; choose(int,int)</text><!--MD5=[80ea1ff6152981d54f3e11fc83ee8a6f]
class edu.kit.kastel.sdq.lissa.ratlr.evaluator.AbstractEvaluator--><rect fill="#FEFECE" filter="url(#f5w8j9bcls688)" height="92.9457" id="edu.kit.kastel.sdq.lissa.ratlr.evaluator.AbstractEvaluator" style="stroke: #A80036; stroke-width: 1.5;" width="324" x="424" y="62"/><ellipse cx="533.75" cy="78" fill="#A9DCDF" rx="11" ry="11" style="stroke: #A80036; stroke-width: 1.0;"/><path d="M533.8594,73.3438 L532.7031,78.4219 L535.0313,78.4219 L533.8594,73.3438 Z M532.375,71.1094 L535.3594,71.1094 L538.7188,83.5 L536.2656,83.5 L535.5,80.4375 L532.2188,80.4375 L531.4688,83.5 L529.0313,83.5 L532.375,71.1094 Z "/><text fill="#000000" font-family="sans-serif" font-size="12" font-style="italic" lengthAdjust="spacingAndGlyphs" textLength="96" x="554.25" y="82.656">AbstractEvaluator</text><line style="stroke: #A80036; stroke-width: 1.5;" x1="425" x2="747" y1="94" y2="94"/><line style="stroke: #A80036; stroke-width: 1.5;" x1="425" x2="747" y1="102" y2="102"/><polygon fill="#FFFF44" points="435,108,439,112,435,116,431,112" style="stroke: #B38D22; stroke-width: 1.0;"/><text fill="#000000" font-family="sans-serif" font-size="11" lengthAdjust="spacingAndGlyphs" textLength="262" x="444" y="117.7589">«Create» AbstractEvaluator(ModuleConfiguration)</text><ellipse cx="435" cy="127.9819" fill="#84BE84" rx="3" ry="3" style="stroke: #038048; stroke-width: 1.0;"/><text fill="#000000" font-family="sans-serif" font-size="11" lengthAdjust="spacingAndGlyphs" text-decoration="underline" textLength="298" x="444" y="132.7408">AbstractEvaluator createEvaluator(ModuleConfiguration)</text><ellipse cx="435" cy="142.9638" fill="#84BE84" rx="3" ry="3" style="stroke: #038048; stroke-width: 1.0;"/><text fill="#000000" font-family="sans-serif" font-size="11" font-style="italic" lengthAdjust="spacingAndGlyphs" textLength="298" x="444" y="147.7227">List&lt;Double&gt; call(List&lt;String&gt;,List&lt;ClassificationTask&gt;,Metric)</text><!--MD5=[bbfcfedc75cc545539058f8172c3b769]
class edu.kit.kastel.sdq.lissa.ratlr.evaluator.MockEvaluator--><rect fill="#FEFECE" filter="url(#f5w8j9bcls688)" height="77.9638" id="edu.kit.kastel.sdq.lissa.ratlr.evaluator.MockEvaluator" style="stroke: #A80036; stroke-width: 1.5;" width="342" x="415" y="222.5"/><ellipse cx="540.25" cy="238.5" fill="#ADD1B2" rx="11" ry="11" style="stroke: #A80036; stroke-width: 1.0;"/><path d="M543.2188,244.1406 Q542.6406,244.4375 542,244.5781 Q541.3594,244.7344 540.6563,244.7344 Q538.1563,244.7344 536.8281,243.0938 Q535.5156,241.4375 535.5156,238.3125 Q535.5156,235.1875 536.8281,233.5313 Q538.1563,231.875 540.6563,231.875 Q541.3594,231.875 542,232.0313 Q542.6563,232.1875 543.2188,232.4844 L543.2188,235.2031 Q542.5938,234.625 542,234.3594 Q541.4063,234.0781 540.7813,234.0781 Q539.4375,234.0781 538.75,235.1563 Q538.0625,236.2188 538.0625,238.3125 Q538.0625,240.4063 538.75,241.4844 Q539.4375,242.5469 540.7813,242.5469 Q541.4063,242.5469 542,242.2813 Q542.5938,242 543.2188,241.4219 L543.2188,244.1406 Z "/><text fill="#000000" font-family="sans-serif" font-size="12" lengthAdjust="spacingAndGlyphs" textLength="83" x="560.75" y="243.156">MockEvaluator</text><line style="stroke: #A80036; stroke-width: 1.5;" x1="416" x2="756" y1="254.5" y2="254.5"/><line style="stroke: #A80036; stroke-width: 1.5;" x1="416" x2="756" y1="262.5" y2="262.5"/><ellipse cx="426" cy="273.5" fill="#84BE84" rx="3" ry="3" style="stroke: #038048; stroke-width: 1.0;"/><text fill="#000000" font-family="sans-serif" font-size="11" lengthAdjust="spacingAndGlyphs" textLength="133" x="435" y="278.2589">«Create» MockEvaluator()</text><ellipse cx="426" cy="288.4819" fill="#84BE84" rx="3" ry="3" style="stroke: #038048; stroke-width: 1.0;"/><text fill="#000000" font-family="sans-serif" font-size="11" lengthAdjust="spacingAndGlyphs" textLength="316" x="435" y="293.2408">List&lt;Double&gt; call(List&lt;String&gt;,List&lt;ClassificationTask&gt;,Metric)</text><!--MD5=[dd13a3c5106ef89ba3a812dc331ed23c]
class edu.kit.kastel.sdq.lissa.ratlr.evaluator.BruteForceEvaluator--><rect fill="#FEFECE" filter="url(#f5w8j9bcls688)" height="92.9457" id="edu.kit.kastel.sdq.lissa.ratlr.evaluator.BruteForceEvaluator" style="stroke: #A80036; stroke-width: 1.5;" width="342" x="792" y="215"/><ellipse cx="901.25" cy="231" fill="#ADD1B2" rx="11" ry="11" style="stroke: #A80036; stroke-width: 1.0;"/><path d="M904.2188,236.6406 Q903.6406,236.9375 903,237.0781 Q902.3594,237.2344 901.6563,237.2344 Q899.1563,237.2344 897.8281,235.5938 Q896.5156,233.9375 896.5156,230.8125 Q896.5156,227.6875 897.8281,226.0313 Q899.1563,224.375 901.6563,224.375 Q902.3594,224.375 903,224.5313 Q903.6563,224.6875 904.2188,224.9844 L904.2188,227.7031 Q903.5938,227.125 903,226.8594 Q902.4063,226.5781 901.7813,226.5781 Q900.4375,226.5781 899.75,227.6563 Q899.0625,228.7188 899.0625,230.8125 Q899.0625,232.9063 899.75,233.9844 Q900.4375,235.0469 901.7813,235.0469 Q902.4063,235.0469 903,234.7813 Q903.5938,234.5 904.2188,233.9219 L904.2188,236.6406 Z "/><text fill="#000000" font-family="sans-serif" font-size="12" lengthAdjust="spacingAndGlyphs" textLength="115" x="921.75" y="235.656">BruteForceEvaluator</text><line style="stroke: #A80036; stroke-width: 1.5;" x1="793" x2="1133" y1="247" y2="247"/><line style="stroke: #A80036; stroke-width: 1.5;" x1="793" x2="1133" y1="255" y2="255"/><ellipse cx="803" cy="266" fill="#84BE84" rx="3" ry="3" style="stroke: #038048; stroke-width: 1.0;"/><text fill="#000000" font-family="sans-serif" font-size="11" lengthAdjust="spacingAndGlyphs" textLength="177" x="812" y="270.7589">«Create» BruteForceEvaluator(int)</text><ellipse cx="803" cy="280.9819" fill="#84BE84" rx="3" ry="3" style="stroke: #038048; stroke-width: 1.0;"/><text fill="#000000" font-family="sans-serif" font-size="11" lengthAdjust="spacingAndGlyphs" textLength="277" x="812" y="285.7408">«Create» BruteForceEvaluator(ModuleConfiguration)</text><ellipse cx="803" cy="295.9638" fill="#84BE84" rx="3" ry="3" style="stroke: #038048; stroke-width: 1.0;"/><text fill="#000000" font-family="sans-serif" font-size="11" lengthAdjust="spacingAndGlyphs" textLength="316" x="812" y="300.7227">List&lt;Double&gt; call(List&lt;String&gt;,List&lt;ClassificationTask&gt;,Metric)</text><!--MD5=[3eeeabf9ca959ba2606fee6ecb13eed0]
reverse link edu.kit.kastel.sdq.lissa.ratlr.evaluator.AbstractEvaluator to edu.kit.kastel.sdq.lissa.ratlr.evaluator.UCBanditEvaluator--><path d="M453.76,162.47 C404.39,182.24 349.34,204.29 303.97,222.46 " fill="none" id="edu.kit.kastel.sdq.lissa.ratlr.evaluator.AbstractEvaluator&lt;-edu.kit.kastel.sdq.lissa.ratlr.evaluator.UCBanditEvaluator" style="stroke: #A80036; stroke-width: 1.0;"/><polygon fill="none" points="451.21,155.95,472.38,155.01,456.41,168.94,451.21,155.95" style="stroke: #A80036; stroke-width: 1.0;"/><!--MD5=[f4143b973b327e0ce7e934f08a044918]
reverse link edu.kit.kastel.sdq.lissa.ratlr.evaluator.UCBanditEvaluator to edu.kit.kastel.sdq.lissa.ratlr.evaluator.UCBanditEvaluator$UCBBandits--><path d="M209,315.93 C209,332.62 209,351.03 209,367.72 " fill="none" id="edu.kit.kastel.sdq.lissa.ratlr.evaluator.UCBanditEvaluator&lt;-edu.kit.kastel.sdq.lissa.ratlr.evaluator.UCBanditEvaluator$UCBBandits" style="stroke: #A80036; stroke-width: 1.0; stroke-dasharray: 7.0,7.0;"/><ellipse cx="209" cy="308.87" fill="#FFFFFF" rx="8" ry="8" style="stroke: #A80036; stroke-width: 1.0;"/><line style="stroke: #A80036; stroke-width: 1.0;" x1="209" x2="209" y1="316.87" y2="300.87"/><line style="stroke: #A80036; stroke-width: 1.0;" x1="201" x2="217" y1="308.87" y2="308.87"/><!--MD5=[5b28836a98f9af6ab4d6b2b8e44ec86e]
reverse link edu.kit.kastel.sdq.lissa.ratlr.evaluator.AbstractEvaluator to edu.kit.kastel.sdq.lissa.ratlr.evaluator.MockEvaluator--><path d="M586,175.28 C586,191.26 586,207.83 586,222.07 " fill="none" id="edu.kit.kastel.sdq.lissa.ratlr.evaluator.AbstractEvaluator&lt;-edu.kit.kastel.sdq.lissa.ratlr.evaluator.MockEvaluator" style="stroke: #A80036; stroke-width: 1.0;"/><polygon fill="none" points="579,175.21,586,155.21,593,175.21,579,175.21" style="stroke: #A80036; stroke-width: 1.0;"/><!--MD5=[160489014abc3db4a6faa33d8ac794d1]
reverse link edu.kit.kastel.sdq.lissa.ratlr.evaluator.AbstractEvaluator to edu.kit.kastel.sdq.lissa.ratlr.evaluator.BruteForceEvaluator--><path d="M718.29,162.48 C761.03,179.6 808.01,198.42 849.28,214.95 " fill="none" id="edu.kit.kastel.sdq.lissa.ratlr.evaluator.AbstractEvaluator&lt;-edu.kit.kastel.sdq.lissa.ratlr.evaluator.BruteForceEvaluator" style="stroke: #A80036; stroke-width: 1.0;"/><polygon fill="none" points="715.59,168.94,699.62,155.01,720.79,155.95,715.59,168.94" style="stroke: #A80036; stroke-width: 1.0;"/><!--MD5=[e4785192a4d3c6e3280a7f0fe6285a51]
@startuml
class edu.kit.kastel.sdq.lissa.ratlr.evaluator.UCBanditEvaluator {
+ <<Create>> UCBanditEvaluator(ModuleConfiguration)
+ List<Double> call(List<String>,List<ClassificationTask>,Metric)
}

class edu.kit.kastel.sdq.lissa.ratlr.evaluator.UCBanditEvaluator$UCBBandits {
+ <<Create>> UCBBandits(int,int,double,String)
+ void update(int[],double[])
+ double[] getScores()
+ List<Integer> choose(int,int)
}

abstract class edu.kit.kastel.sdq.lissa.ratlr.evaluator.AbstractEvaluator {
# <<Create>> AbstractEvaluator(ModuleConfiguration)
+ {static} AbstractEvaluator createEvaluator(ModuleConfiguration)
+ {abstract}List<Double> call(List<String>,List<ClassificationTask>,Metric)
}

class edu.kit.kastel.sdq.lissa.ratlr.evaluator.MockEvaluator {
+ <<Create>> MockEvaluator()
+ List<Double> call(List<String>,List<ClassificationTask>,Metric)
}

class edu.kit.kastel.sdq.lissa.ratlr.evaluator.BruteForceEvaluator {
+ <<Create>> BruteForceEvaluator(int)
+ <<Create>> BruteForceEvaluator(ModuleConfiguration)
+ List<Double> call(List<String>,List<ClassificationTask>,Metric)
}



edu.kit.kastel.sdq.lissa.ratlr.evaluator.AbstractEvaluator <|- - edu.kit.kastel.sdq.lissa.ratlr.evaluator.UCBanditEvaluator
edu.kit.kastel.sdq.lissa.ratlr.evaluator.UCBanditEvaluator +.. edu.kit.kastel.sdq.lissa.ratlr.evaluator.UCBanditEvaluator$UCBBandits
edu.kit.kastel.sdq.lissa.ratlr.evaluator.AbstractEvaluator <|- - edu.kit.kastel.sdq.lissa.ratlr.evaluator.MockEvaluator
edu.kit.kastel.sdq.lissa.ratlr.evaluator.AbstractEvaluator <|- - edu.kit.kastel.sdq.lissa.ratlr.evaluator.BruteForceEvaluator
@enduml

PlantUML version 1.2020.02(Sun Mar 01 11:22:07 CET 2020)
(GPL source distribution)
Java Runtime: OpenJDK Runtime Environment
JVM: OpenJDK 64-Bit Server VM
Java Version: 21.0.8+9-Ubuntu-0ubuntu124.04.1
Operating System: Linux
Default Encoding: UTF-8
Language: en
Country: null
--></g></svg>