<?xml version="1.0" encoding="UTF-8" standalone="no"?><svg xmlns="http://www.w3.org/2000/svg" xmlns:xlink="http://www.w3.org/1999/xlink" contentScriptType="application/ecmascript" contentStyleType="text/css" height="504px" preserveAspectRatio="none" style="width:1256px;height:504px;" version="1.1" viewBox="0 0 1256 504" width="1256px" zoomAndPan="magnify"><defs><filter height="300%" id="f1da30lbitbihr" width="300%" x="-1" y="-1"><feGaussianBlur result="blurOut" stdDeviation="2.0"/><feColorMatrix in="blurOut" result="blurOut2" type="matrix" values="0 0 0 0 0 0 0 0 0 0 0 0 0 0 0 0 0 0 .4 0"/><feOffset dx="4.0" dy="4.0" in="blurOut2" result="blurOut3"/><feBlend in="SourceGraphic" in2="blurOut3" mode="normal"/></filter></defs><g><!--MD5=[44a41aac9f8521bbd1caa3a7cf332aa7]
cluster edu.kit.kastel.sdq.lissa.ratlr.promptmetric--><polygon fill="#FFFFFF" filter="url(#f1da30lbitbihr)" points="22,24,322,24,329,49.0679,1234,49.0679,1234,492,22,492,22,24" style="stroke: #000000; stroke-width: 1.5;"/><line style="stroke: #000000; stroke-width: 1.5;" x1="22" x2="329" y1="49.0679" y2="49.0679"/><text fill="#000000" font-family="sans-serif" font-size="14" font-weight="bold" lengthAdjust="spacingAndGlyphs" textLength="294" x="26" y="40.9659">edu.kit.kastel.sdq.lissa.ratlr.promptmetric</text><!--MD5=[bd234a1bc5dddf55c6c5077cb326960d]
class edu.kit.kastel.sdq.lissa.ratlr.promptmetric.PointwiseMetric--><rect fill="#FEFECE" filter="url(#f1da30lbitbihr)" height="107.9276" id="edu.kit.kastel.sdq.lissa.ratlr.promptmetric.PointwiseMetric" style="stroke: #A80036; stroke-width: 1.5;" width="339" x="38.5" y="215"/><ellipse cx="159.25" cy="231" fill="#ADD1B2" rx="11" ry="11" style="stroke: #A80036; stroke-width: 1.0;"/><path d="M162.2188,236.6406 Q161.6406,236.9375 161,237.0781 Q160.3594,237.2344 159.6563,237.2344 Q157.1563,237.2344 155.8281,235.5938 Q154.5156,233.9375 154.5156,230.8125 Q154.5156,227.6875 155.8281,226.0313 Q157.1563,224.375 159.6563,224.375 Q160.3594,224.375 161,224.5313 Q161.6563,224.6875 162.2188,224.9844 L162.2188,227.7031 Q161.5938,227.125 161,226.8594 Q160.4063,226.5781 159.7813,226.5781 Q158.4375,226.5781 157.75,227.6563 Q157.0625,228.7188 157.0625,230.8125 Q157.0625,232.9063 157.75,233.9844 Q158.4375,235.0469 159.7813,235.0469 Q160.4063,235.0469 161,234.7813 Q161.5938,234.5 162.2188,233.9219 L162.2188,236.6406 Z "/><text fill="#000000" font-family="sans-serif" font-size="12" lengthAdjust="spacingAndGlyphs" textLength="89" x="179.75" y="235.656">PointwiseMetric</text><line style="stroke: #A80036; stroke-width: 1.5;" x1="39.5" x2="376.5" y1="247" y2="247"/><line style="stroke: #A80036; stroke-width: 1.5;" x1="39.5" x2="376.5" y1="255" y2="255"/><ellipse cx="49.5" cy="266" fill="#84BE84" rx="3" ry="3" style="stroke: #038048; stroke-width: 1.0;"/><text fill="#000000" font-family="sans-serif" font-size="11" lengthAdjust="spacingAndGlyphs" textLength="303" x="58.5" y="270.7589">«Create» PointwiseMetric(ModuleConfiguration,Classifier)</text><ellipse cx="49.5" cy="280.9819" fill="#84BE84" rx="3" ry="3" style="stroke: #038048; stroke-width: 1.0;"/><text fill="#000000" font-family="sans-serif" font-size="11" lengthAdjust="spacingAndGlyphs" textLength="313" x="58.5" y="285.7408">List&lt;Double&gt; getMetric(List&lt;String&gt;,List&lt;ClassificationTask&gt;)</text><ellipse cx="49.5" cy="295.9638" fill="#84BE84" rx="3" ry="3" style="stroke: #038048; stroke-width: 1.0;"/><text fill="#000000" font-family="sans-serif" font-size="11" lengthAdjust="spacingAndGlyphs" textLength="253" x="58.5" y="300.7227">Double getMetric(String,List&lt;ClassificationTask&gt;)</text><ellipse cx="49.5" cy="310.9457" fill="#84BE84" rx="3" ry="3" style="stroke: #038048; stroke-width: 1.0;"/><text fill="#000000" font-family="sans-serif" font-size="11" lengthAdjust="spacingAndGlyphs" textLength="88" x="58.5" y="315.7046">String getName()</text><!--MD5=[8b9bb59286ad7c852e7d5fd2581f7d7c]
class edu.kit.kastel.sdq.lissa.ratlr.promptmetric.Metric--><rect fill="#FEFECE" filter="url(#f1da30lbitbihr)" height="92.9457" id="edu.kit.kastel.sdq.lissa.ratlr.promptmetric.Metric" style="stroke: #A80036; stroke-width: 1.5;" width="339" x="606.5" y="62"/><ellipse cx="755.25" cy="78" fill="#B4A7E5" rx="11" ry="11" style="stroke: #A80036; stroke-width: 1.0;"/><path d="M751.1719,73.7656 L751.1719,71.6094 L758.5625,71.6094 L758.5625,73.7656 L756.0938,73.7656 L756.0938,81.8438 L758.5625,81.8438 L758.5625,84 L751.1719,84 L751.1719,81.8438 L753.6406,81.8438 L753.6406,73.7656 L751.1719,73.7656 Z "/><text fill="#000000" font-family="sans-serif" font-size="12" font-style="italic" lengthAdjust="spacingAndGlyphs" textLength="33" x="775.75" y="82.656">Metric</text><line style="stroke: #A80036; stroke-width: 1.5;" x1="607.5" x2="944.5" y1="94" y2="94"/><line style="stroke: #A80036; stroke-width: 1.5;" x1="607.5" x2="944.5" y1="102" y2="102"/><polygon fill="#4177AF" points="617.5,109,613.5,115,621.5,115" style="stroke: #1963A0; stroke-width: 1.0;"/><text fill="#000000" font-family="sans-serif" font-size="11" lengthAdjust="spacingAndGlyphs" textLength="313" x="626.5" y="117.7589">List&lt;Double&gt; getMetric(List&lt;String&gt;,List&lt;ClassificationTask&gt;)</text><polygon fill="#4177AF" points="617.5,123.9819,613.5,129.9819,621.5,129.9819" style="stroke: #1963A0; stroke-width: 1.0;"/><text fill="#000000" font-family="sans-serif" font-size="11" lengthAdjust="spacingAndGlyphs" textLength="253" x="626.5" y="132.7408">Double getMetric(String,List&lt;ClassificationTask&gt;)</text><polygon fill="#4177AF" points="617.5,138.9638,613.5,144.9638,621.5,144.9638" style="stroke: #1963A0; stroke-width: 1.0;"/><text fill="#000000" font-family="sans-serif" font-size="11" lengthAdjust="spacingAndGlyphs" textLength="88" x="626.5" y="147.7227">String getName()</text><!--MD5=[7281583c0c36ae926dc5d95b19220d64]
class edu.kit.kastel.sdq.lissa.ratlr.promptmetric.MetricFactory--><rect fill="#FEFECE" filter="url(#f1da30lbitbihr)" height="62.9819" id="edu.kit.kastel.sdq.lissa.ratlr.promptmetric.MetricFactory" style="stroke: #A80036; stroke-width: 1.5;" width="533" x="38.5" y="77"/><ellipse cx="262.25" cy="93" fill="#ADD1B2" rx="11" ry="11" style="stroke: #A80036; stroke-width: 1.0;"/><path d="M265.2188,98.6406 Q264.6406,98.9375 264,99.0781 Q263.3594,99.2344 262.6563,99.2344 Q260.1563,99.2344 258.8281,97.5938 Q257.5156,95.9375 257.5156,92.8125 Q257.5156,89.6875 258.8281,88.0313 Q260.1563,86.375 262.6563,86.375 Q263.3594,86.375 264,86.5313 Q264.6563,86.6875 265.2188,86.9844 L265.2188,89.7031 Q264.5938,89.125 264,88.8594 Q263.4063,88.5781 262.7813,88.5781 Q261.4375,88.5781 260.75,89.6563 Q260.0625,90.7188 260.0625,92.8125 Q260.0625,94.9063 260.75,95.9844 Q261.4375,97.0469 262.7813,97.0469 Q263.4063,97.0469 264,96.7813 Q264.5938,96.5 265.2188,95.9219 L265.2188,98.6406 Z "/><text fill="#000000" font-family="sans-serif" font-size="12" lengthAdjust="spacingAndGlyphs" textLength="77" x="282.75" y="97.656">MetricFactory</text><line style="stroke: #A80036; stroke-width: 1.5;" x1="39.5" x2="570.5" y1="109" y2="109"/><line style="stroke: #A80036; stroke-width: 1.5;" x1="39.5" x2="570.5" y1="117" y2="117"/><ellipse cx="49.5" cy="128" fill="#84BE84" rx="3" ry="3" style="stroke: #038048; stroke-width: 1.0;"/><text fill="#000000" font-family="sans-serif" font-size="11" lengthAdjust="spacingAndGlyphs" text-decoration="underline" textLength="507" x="58.5" y="132.7589">Metric createScorer(ModuleConfiguration,Classifier,ResultAggregator,TraceLinkIdPostprocessor)</text><!--MD5=[b127debaac3145777de8bef0c1b34981]
class edu.kit.kastel.sdq.lissa.ratlr.promptmetric.GlobalMetric--><rect fill="#FEFECE" filter="url(#f1da30lbitbihr)" height="107.9276" id="edu.kit.kastel.sdq.lissa.ratlr.promptmetric.GlobalMetric" style="stroke: #A80036; stroke-width: 1.5;" width="430" x="413" y="215"/><ellipse cx="589.75" cy="231" fill="#A9DCDF" rx="11" ry="11" style="stroke: #A80036; stroke-width: 1.0;"/><path d="M589.8594,226.3438 L588.7031,231.4219 L591.0313,231.4219 L589.8594,226.3438 Z M588.375,224.1094 L591.3594,224.1094 L594.7188,236.5 L592.2656,236.5 L591.5,233.4375 L588.2188,233.4375 L587.4688,236.5 L585.0313,236.5 L588.375,224.1094 Z "/><text fill="#000000" font-family="sans-serif" font-size="12" font-style="italic" lengthAdjust="spacingAndGlyphs" textLength="68" x="610.25" y="235.656">GlobalMetric</text><line style="stroke: #A80036; stroke-width: 1.5;" x1="414" x2="842" y1="247" y2="247"/><line style="stroke: #A80036; stroke-width: 1.5;" x1="414" x2="842" y1="255" y2="255"/><polygon fill="#FFFF44" points="424,261,428,265,424,269,420,265" style="stroke: #B38D22; stroke-width: 1.0;"/><text fill="#000000" font-family="sans-serif" font-size="11" lengthAdjust="spacingAndGlyphs" textLength="404" x="433" y="270.7589">«Create» GlobalMetric(Classifier,ResultAggregator,TraceLinkIdPostprocessor)</text><ellipse cx="424" cy="280.9819" fill="#84BE84" rx="3" ry="3" style="stroke: #038048; stroke-width: 1.0;"/><text fill="#000000" font-family="sans-serif" font-size="11" lengthAdjust="spacingAndGlyphs" textLength="313" x="433" y="285.7408">List&lt;Double&gt; getMetric(List&lt;String&gt;,List&lt;ClassificationTask&gt;)</text><ellipse cx="424" cy="295.9638" fill="#84BE84" rx="3" ry="3" style="stroke: #038048; stroke-width: 1.0;"/><text fill="#000000" font-family="sans-serif" font-size="11" lengthAdjust="spacingAndGlyphs" textLength="253" x="433" y="300.7227">Double getMetric(String,List&lt;ClassificationTask&gt;)</text><polygon fill="#FFFF44" points="424,305.9457,428,309.9457,424,313.9457,420,309.9457" style="stroke: #B38D22; stroke-width: 1.0;"/><text fill="#000000" font-family="sans-serif" font-size="11" font-style="italic" lengthAdjust="spacingAndGlyphs" textLength="273" x="433" y="315.7046">double reduce(Collection&lt;T&gt;,Collection&lt;T&gt;,Collection&lt;T&gt;)</text><!--MD5=[ae9e9629434a6c48779569c754ad3e5e]
class edu.kit.kastel.sdq.lissa.ratlr.promptmetric.FBetaMetric--><rect fill="#FEFECE" filter="url(#f1da30lbitbihr)" height="92.9457" id="edu.kit.kastel.sdq.lissa.ratlr.promptmetric.FBetaMetric" style="stroke: #A80036; stroke-width: 1.5;" width="542" x="357" y="383"/><ellipse cx="589.75" cy="399" fill="#ADD1B2" rx="11" ry="11" style="stroke: #A80036; stroke-width: 1.0;"/><path d="M592.7188,404.6406 Q592.1406,404.9375 591.5,405.0781 Q590.8594,405.2344 590.1563,405.2344 Q587.6563,405.2344 586.3281,403.5938 Q585.0156,401.9375 585.0156,398.8125 Q585.0156,395.6875 586.3281,394.0313 Q587.6563,392.375 590.1563,392.375 Q590.8594,392.375 591.5,392.5313 Q592.1563,392.6875 592.7188,392.9844 L592.7188,395.7031 Q592.0938,395.125 591.5,394.8594 Q590.9063,394.5781 590.2813,394.5781 Q588.9375,394.5781 588.25,395.6563 Q587.5625,396.7188 587.5625,398.8125 Q587.5625,400.9063 588.25,401.9844 Q588.9375,403.0469 590.2813,403.0469 Q590.9063,403.0469 591.5,402.7813 Q592.0938,402.5 592.7188,401.9219 L592.7188,404.6406 Z "/><text fill="#000000" font-family="sans-serif" font-size="12" lengthAdjust="spacingAndGlyphs" textLength="68" x="610.25" y="403.656">FBetaMetric</text><line style="stroke: #A80036; stroke-width: 1.5;" x1="358" x2="898" y1="415" y2="415"/><line style="stroke: #A80036; stroke-width: 1.5;" x1="358" x2="898" y1="423" y2="423"/><ellipse cx="368" cy="434" fill="#84BE84" rx="3" ry="3" style="stroke: #038048; stroke-width: 1.0;"/><text fill="#000000" font-family="sans-serif" font-size="11" lengthAdjust="spacingAndGlyphs" textLength="516" x="377" y="438.7589">«Create» FBetaMetric(ModuleConfiguration,Classifier,ResultAggregator,TraceLinkIdPostprocessor)</text><ellipse cx="368" cy="448.9819" fill="#84BE84" rx="3" ry="3" style="stroke: #038048; stroke-width: 1.0;"/><text fill="#000000" font-family="sans-serif" font-size="11" lengthAdjust="spacingAndGlyphs" textLength="298" x="377" y="453.7408">double reduce(Collection&lt;T&gt;,Collection&lt;T&gt;,Collection&lt;T&gt;)</text><ellipse cx="368" cy="463.9638" fill="#84BE84" rx="3" ry="3" style="stroke: #038048; stroke-width: 1.0;"/><text fill="#000000" font-family="sans-serif" font-size="11" lengthAdjust="spacingAndGlyphs" textLength="88" x="377" y="468.7227">String getName()</text><!--MD5=[5f67efde0f66531c57fa92273a7e5f32]
class edu.kit.kastel.sdq.lissa.ratlr.promptmetric.MockMetric--><rect fill="#FEFECE" filter="url(#f1da30lbitbihr)" height="107.9276" id="edu.kit.kastel.sdq.lissa.ratlr.promptmetric.MockMetric" style="stroke: #A80036; stroke-width: 1.5;" width="339" x="878.5" y="215"/><ellipse cx="1010.75" cy="231" fill="#ADD1B2" rx="11" ry="11" style="stroke: #A80036; stroke-width: 1.0;"/><path d="M1013.7188,236.6406 Q1013.1406,236.9375 1012.5,237.0781 Q1011.8594,237.2344 1011.1563,237.2344 Q1008.6563,237.2344 1007.3281,235.5938 Q1006.0156,233.9375 1006.0156,230.8125 Q1006.0156,227.6875 1007.3281,226.0313 Q1008.6563,224.375 1011.1563,224.375 Q1011.8594,224.375 1012.5,224.5313 Q1013.1563,224.6875 1013.7188,224.9844 L1013.7188,227.7031 Q1013.0938,227.125 1012.5,226.8594 Q1011.9063,226.5781 1011.2813,226.5781 Q1009.9375,226.5781 1009.25,227.6563 Q1008.5625,228.7188 1008.5625,230.8125 Q1008.5625,232.9063 1009.25,233.9844 Q1009.9375,235.0469 1011.2813,235.0469 Q1011.9063,235.0469 1012.5,234.7813 Q1013.0938,234.5 1013.7188,233.9219 L1013.7188,236.6406 Z "/><text fill="#000000" font-family="sans-serif" font-size="12" lengthAdjust="spacingAndGlyphs" textLength="66" x="1031.25" y="235.656">MockMetric</text><line style="stroke: #A80036; stroke-width: 1.5;" x1="879.5" x2="1216.5" y1="247" y2="247"/><line style="stroke: #A80036; stroke-width: 1.5;" x1="879.5" x2="1216.5" y1="255" y2="255"/><ellipse cx="889.5" cy="266" fill="#84BE84" rx="3" ry="3" style="stroke: #038048; stroke-width: 1.0;"/><text fill="#000000" font-family="sans-serif" font-size="11" lengthAdjust="spacingAndGlyphs" textLength="116" x="898.5" y="270.7589">«Create» MockMetric()</text><ellipse cx="889.5" cy="280.9819" fill="#84BE84" rx="3" ry="3" style="stroke: #038048; stroke-width: 1.0;"/><text fill="#000000" font-family="sans-serif" font-size="11" lengthAdjust="spacingAndGlyphs" textLength="313" x="898.5" y="285.7408">List&lt;Double&gt; getMetric(List&lt;String&gt;,List&lt;ClassificationTask&gt;)</text><ellipse cx="889.5" cy="295.9638" fill="#84BE84" rx="3" ry="3" style="stroke: #038048; stroke-width: 1.0;"/><text fill="#000000" font-family="sans-serif" font-size="11" lengthAdjust="spacingAndGlyphs" textLength="253" x="898.5" y="300.7227">Double getMetric(String,List&lt;ClassificationTask&gt;)</text><ellipse cx="889.5" cy="310.9457" fill="#84BE84" rx="3" ry="3" style="stroke: #038048; stroke-width: 1.0;"/><text fill="#000000" font-family="sans-serif" font-size="11" lengthAdjust="spacingAndGlyphs" textLength="88" x="898.5" y="315.7046">String getName()</text><!--MD5=[4162a9d51e2507a348e598415c2ab239]
reverse link edu.kit.kastel.sdq.lissa.ratlr.promptmetric.Metric to edu.kit.kastel.sdq.lissa.ratlr.promptmetric.PointwiseMetric--><path d="M590.94,160.5 C528.66,177.73 458.8,197.13 395,215 C389.31,216.59 383.53,218.22 377.69,219.86 " fill="none" id="edu.kit.kastel.sdq.lissa.ratlr.promptmetric.Metric&lt;-edu.kit.kastel.sdq.lissa.ratlr.promptmetric.PointwiseMetric" style="stroke: #A80036; stroke-width: 1.0; stroke-dasharray: 7.0,7.0;"/><polygon fill="none" points="589.3,153.69,610.44,155.11,593.03,167.19,589.3,153.69" style="stroke: #A80036; stroke-width: 1.0;"/><!--MD5=[489d029196db32d8f75e7d1b55da0d7f]
reverse link edu.kit.kastel.sdq.lissa.ratlr.promptmetric.Metric to edu.kit.kastel.sdq.lissa.ratlr.promptmetric.GlobalMetric--><path d="M719.25,170.28 C705.49,185.02 690.89,200.65 677.49,214.99 " fill="none" id="edu.kit.kastel.sdq.lissa.ratlr.promptmetric.Metric&lt;-edu.kit.kastel.sdq.lissa.ratlr.promptmetric.GlobalMetric" style="stroke: #A80036; stroke-width: 1.0; stroke-dasharray: 7.0,7.0;"/><polygon fill="none" points="714.43,165.19,733.19,155.34,724.66,174.74,714.43,165.19" style="stroke: #A80036; stroke-width: 1.0;"/><!--MD5=[62321da12d161a5c0458b8719e93916b]
reverse link edu.kit.kastel.sdq.lissa.ratlr.promptmetric.GlobalMetric to edu.kit.kastel.sdq.lissa.ratlr.promptmetric.FBetaMetric--><path d="M628,343.29 C628,356.77 628,370.47 628,382.84 " fill="none" id="edu.kit.kastel.sdq.lissa.ratlr.promptmetric.GlobalMetric&lt;-edu.kit.kastel.sdq.lissa.ratlr.promptmetric.FBetaMetric" style="stroke: #A80036; stroke-width: 1.0;"/><polygon fill="none" points="621,343.22,628,323.22,635,343.22,621,343.22" style="stroke: #A80036; stroke-width: 1.0;"/><!--MD5=[a3c71b818afbe56bea5f4dd93e959f74]
reverse link edu.kit.kastel.sdq.lissa.ratlr.promptmetric.Metric to edu.kit.kastel.sdq.lissa.ratlr.promptmetric.MockMetric--><path d="M871.63,165.22 C899.3,181.35 929.42,198.9 956.81,214.86 " fill="none" id="edu.kit.kastel.sdq.lissa.ratlr.promptmetric.Metric&lt;-edu.kit.kastel.sdq.lissa.ratlr.promptmetric.MockMetric" style="stroke: #A80036; stroke-width: 1.0; stroke-dasharray: 7.0,7.0;"/><polygon fill="none" points="868.06,171.25,854.31,155.13,875.11,159.15,868.06,171.25" style="stroke: #A80036; stroke-width: 1.0;"/><!--MD5=[8f8a9b32cf4cf64f2f905bf796184c26]
@startuml
class edu.kit.kastel.sdq.lissa.ratlr.promptmetric.PointwiseMetric {
+ <<Create>> PointwiseMetric(ModuleConfiguration,Classifier)
+ List<Double> getMetric(List<String>,List<ClassificationTask>)
+ Double getMetric(String,List<ClassificationTask>)
+ String getName()
}

interface edu.kit.kastel.sdq.lissa.ratlr.promptmetric.Metric {
~ List<Double> getMetric(List<String>,List<ClassificationTask>)
~ Double getMetric(String,List<ClassificationTask>)
~ String getName()
}

class edu.kit.kastel.sdq.lissa.ratlr.promptmetric.MetricFactory {
+ {static} Metric createScorer(ModuleConfiguration,Classifier,ResultAggregator,TraceLinkIdPostprocessor)
}

abstract class edu.kit.kastel.sdq.lissa.ratlr.promptmetric.GlobalMetric {
# <<Create>> GlobalMetric(Classifier,ResultAggregator,TraceLinkIdPostprocessor)
+ List<Double> getMetric(List<String>,List<ClassificationTask>)
+ Double getMetric(String,List<ClassificationTask>)
# {abstract}double reduce(Collection<T>,Collection<T>,Collection<T>)
}

class edu.kit.kastel.sdq.lissa.ratlr.promptmetric.FBetaMetric {
+ <<Create>> FBetaMetric(ModuleConfiguration,Classifier,ResultAggregator,TraceLinkIdPostprocessor)
+ double reduce(Collection<T>,Collection<T>,Collection<T>)
+ String getName()
}

class edu.kit.kastel.sdq.lissa.ratlr.promptmetric.MockMetric {
+ <<Create>> MockMetric()
+ List<Double> getMetric(List<String>,List<ClassificationTask>)
+ Double getMetric(String,List<ClassificationTask>)
+ String getName()
}

edu.kit.kastel.sdq.lissa.ratlr.promptmetric.Metric <|.. edu.kit.kastel.sdq.lissa.ratlr.promptmetric.PointwiseMetric
edu.kit.kastel.sdq.lissa.ratlr.promptmetric.Metric <|.. edu.kit.kastel.sdq.lissa.ratlr.promptmetric.GlobalMetric
edu.kit.kastel.sdq.lissa.ratlr.promptmetric.GlobalMetric <|- - edu.kit.kastel.sdq.lissa.ratlr.promptmetric.FBetaMetric
edu.kit.kastel.sdq.lissa.ratlr.promptmetric.Metric <|.. edu.kit.kastel.sdq.lissa.ratlr.promptmetric.MockMetric
@enduml

PlantUML version 1.2020.02(Sun Mar 01 11:22:07 CET 2020)
(GPL source distribution)
Java Runtime: OpenJDK Runtime Environment
JVM: OpenJDK 64-Bit Server VM
Java Version: 21.0.8+9-Ubuntu-0ubuntu124.04.1
Operating System: Linux
Default Encoding: UTF-8
Language: en
Country: null
--></g></svg>