<?xml version="1.0" encoding="UTF-8" standalone="no"?><svg xmlns="http://www.w3.org/2000/svg" xmlns:xlink="http://www.w3.org/1999/xlink" contentScriptType="application/ecmascript" contentStyleType="text/css" height="654px" preserveAspectRatio="none" style="width:1485px;height:654px;" version="1.1" viewBox="0 0 1485 654" width="1485px" zoomAndPan="magnify"><defs><filter height="300%" id="f14fn5i4bijozj" width="300%" x="-1" y="-1"><feGaussianBlur result="blurOut" stdDeviation="2.0"/><feColorMatrix in="blurOut" result="blurOut2" type="matrix" values="0 0 0 0 0 0 0 0 0 0 0 0 0 0 0 0 0 0 .4 0"/><feOffset dx="4.0" dy="4.0" in="blurOut2" result="blurOut3"/><feBlend in="SourceGraphic" in2="blurOut3" mode="normal"/></filter></defs><g><!--MD5=[f3408a4848b08bdf3987a862826fe430]
cluster edu.kit.kastel.sdq.lissa.ratlr.promptoptimizer--><polygon fill="#FFFFFF" filter="url(#f14fn5i4bijozj)" points="22,24,344,24,351,49.0679,1463,49.0679,1463,642,22,642,22,24" style="stroke: #000000; stroke-width: 1.5;"/><line style="stroke: #000000; stroke-width: 1.5;" x1="22" x2="351" y1="49.0679" y2="49.0679"/><text fill="#000000" font-family="sans-serif" font-size="14" font-weight="bold" lengthAdjust="spacingAndGlyphs" textLength="316" x="26" y="40.9659">edu.kit.kastel.sdq.lissa.ratlr.promptoptimizer</text><!--MD5=[2c78e4a414ae15858fc9d26abde2371a]
class edu.kit.kastel.sdq.lissa.ratlr.promptoptimizer.AutomaticPromptOptimizer--><rect fill="#FEFECE" filter="url(#f14fn5i4bijozj)" height="122.9094" id="edu.kit.kastel.sdq.lissa.ratlr.promptoptimizer.AutomaticPromptOptimizer" style="stroke: #A80036; stroke-width: 1.5;" width="553" x="38.5" y="503"/><ellipse cx="234.25" cy="519" fill="#ADD1B2" rx="11" ry="11" style="stroke: #A80036; stroke-width: 1.0;"/><path d="M237.2188,524.6406 Q236.6406,524.9375 236,525.0781 Q235.3594,525.2344 234.6563,525.2344 Q232.1563,525.2344 230.8281,523.5938 Q229.5156,521.9375 229.5156,518.8125 Q229.5156,515.6875 230.8281,514.0313 Q232.1563,512.375 234.6563,512.375 Q235.3594,512.375 236,512.5313 Q236.6563,512.6875 237.2188,512.9844 L237.2188,515.7031 Q236.5938,515.125 236,514.8594 Q235.4063,514.5781 234.7813,514.5781 Q233.4375,514.5781 232.75,515.6563 Q232.0625,516.7188 232.0625,518.8125 Q232.0625,520.9063 232.75,521.9844 Q233.4375,523.0469 234.7813,523.0469 Q235.4063,523.0469 236,522.7813 Q236.5938,522.5 237.2188,521.9219 L237.2188,524.6406 Z "/><text fill="#000000" font-family="sans-serif" font-size="12" lengthAdjust="spacingAndGlyphs" textLength="153" x="254.75" y="523.656">AutomaticPromptOptimizer</text><line style="stroke: #A80036; stroke-width: 1.5;" x1="39.5" x2="590.5" y1="535" y2="535"/><ellipse cx="49.5" cy="546" fill="none" rx="3" ry="3" style="stroke: #038048; stroke-width: 1.0;"/><text fill="#000000" font-family="sans-serif" font-size="11" lengthAdjust="spacingAndGlyphs" text-decoration="underline" textLength="93" x="58.5" y="550.7589">String START_TAG</text><ellipse cx="49.5" cy="560.9819" fill="none" rx="3" ry="3" style="stroke: #038048; stroke-width: 1.0;"/><text fill="#000000" font-family="sans-serif" font-size="11" lengthAdjust="spacingAndGlyphs" text-decoration="underline" textLength="83" x="58.5" y="565.7408">String END_TAG</text><ellipse cx="49.5" cy="575.9638" fill="none" rx="3" ry="3" style="stroke: #038048; stroke-width: 1.0;"/><text fill="#000000" font-family="sans-serif" font-size="11" lengthAdjust="spacingAndGlyphs" text-decoration="underline" textLength="169" x="58.5" y="580.7227">String SECTION_HEADER_PREFIX</text><line style="stroke: #A80036; stroke-width: 1.5;" x1="39.5" x2="590.5" y1="587.9457" y2="587.9457"/><ellipse cx="49.5" cy="598.9457" fill="#84BE84" rx="3" ry="3" style="stroke: #038048; stroke-width: 1.0;"/><text fill="#000000" font-family="sans-serif" font-size="11" lengthAdjust="spacingAndGlyphs" textLength="527" x="58.5" y="603.7046">«Create» AutomaticPromptOptimizer(ModuleConfiguration,Set&lt;TraceLink&gt;,Metric,AbstractEvaluator)</text><ellipse cx="49.5" cy="613.9276" fill="#84BE84" rx="3" ry="3" style="stroke: #038048; stroke-width: 1.0;"/><text fill="#000000" font-family="sans-serif" font-size="11" lengthAdjust="spacingAndGlyphs" textLength="299" x="58.5" y="618.6865">String optimize(SourceElementStore,TargetElementStore)</text><!--MD5=[dcd0b4aee220435fcced4bfdf085bb03]
class edu.kit.kastel.sdq.lissa.ratlr.promptoptimizer.PromptOptimizer--><rect fill="#FEFECE" filter="url(#f14fn5i4bijozj)" height="62.9819" id="edu.kit.kastel.sdq.lissa.ratlr.promptoptimizer.PromptOptimizer" style="stroke: #A80036; stroke-width: 1.5;" width="325" x="133.5" y="114.5"/><ellipse cx="244.75" cy="130.5" fill="#B4A7E5" rx="11" ry="11" style="stroke: #A80036; stroke-width: 1.0;"/><path d="M240.6719,126.2656 L240.6719,124.1094 L248.0625,124.1094 L248.0625,126.2656 L245.5938,126.2656 L245.5938,134.3438 L248.0625,134.3438 L248.0625,136.5 L240.6719,136.5 L240.6719,134.3438 L243.1406,134.3438 L243.1406,126.2656 L240.6719,126.2656 Z "/><text fill="#000000" font-family="sans-serif" font-size="12" font-style="italic" lengthAdjust="spacingAndGlyphs" textLength="94" x="265.25" y="135.156">PromptOptimizer</text><line style="stroke: #A80036; stroke-width: 1.5;" x1="134.5" x2="457.5" y1="146.5" y2="146.5"/><line style="stroke: #A80036; stroke-width: 1.5;" x1="134.5" x2="457.5" y1="154.5" y2="154.5"/><polygon fill="#4177AF" points="144.5,161.5,140.5,167.5,148.5,167.5" style="stroke: #1963A0; stroke-width: 1.0;"/><text fill="#000000" font-family="sans-serif" font-size="11" lengthAdjust="spacingAndGlyphs" textLength="299" x="153.5" y="170.2589">String optimize(SourceElementStore,TargetElementStore)</text><!--MD5=[aaf966deac3ce15ceccd700c41f614db]
class edu.kit.kastel.sdq.lissa.ratlr.promptoptimizer.IterativeOptimizer--><rect fill="#FEFECE" filter="url(#f14fn5i4bijozj)" height="152.8732" id="edu.kit.kastel.sdq.lissa.ratlr.promptoptimizer.IterativeOptimizer" style="stroke: #A80036; stroke-width: 1.5;" width="425" x="38.5" y="290"/><ellipse cx="195.75" cy="306" fill="#ADD1B2" rx="11" ry="11" style="stroke: #A80036; stroke-width: 1.0;"/><path d="M198.7188,311.6406 Q198.1406,311.9375 197.5,312.0781 Q196.8594,312.2344 196.1563,312.2344 Q193.6563,312.2344 192.3281,310.5938 Q191.0156,308.9375 191.0156,305.8125 Q191.0156,302.6875 192.3281,301.0313 Q193.6563,299.375 196.1563,299.375 Q196.8594,299.375 197.5,299.5313 Q198.1563,299.6875 198.7188,299.9844 L198.7188,302.7031 Q198.0938,302.125 197.5,301.8594 Q196.9063,301.5781 196.2813,301.5781 Q194.9375,301.5781 194.25,302.6563 Q193.5625,303.7188 193.5625,305.8125 Q193.5625,307.9063 194.25,308.9844 Q194.9375,310.0469 196.2813,310.0469 Q196.9063,310.0469 197.5,309.7813 Q198.0938,309.5 198.7188,308.9219 L198.7188,311.6406 Z "/><text fill="#000000" font-family="sans-serif" font-size="12" lengthAdjust="spacingAndGlyphs" textLength="102" x="216.25" y="310.656">IterativeOptimizer</text><line style="stroke: #A80036; stroke-width: 1.5;" x1="39.5" x2="462.5" y1="322" y2="322"/><line style="stroke: #A80036; stroke-width: 1.5;" x1="39.5" x2="462.5" y1="330" y2="330"/><ellipse cx="49.5" cy="341" fill="#84BE84" rx="3" ry="3" style="stroke: #038048; stroke-width: 1.0;"/><text fill="#000000" font-family="sans-serif" font-size="11" lengthAdjust="spacingAndGlyphs" textLength="382" x="58.5" y="345.7589">«Create» IterativeOptimizer(ModuleConfiguration,Set&lt;TraceLink&gt;,Metric)</text><ellipse cx="49.5" cy="355.9819" fill="#84BE84" rx="3" ry="3" style="stroke: #038048; stroke-width: 1.0;"/><text fill="#000000" font-family="sans-serif" font-size="11" lengthAdjust="spacingAndGlyphs" textLength="399" x="58.5" y="360.7408">«Create» IterativeOptimizer(ModuleConfiguration,Set&lt;TraceLink&gt;,Metric,int)</text><ellipse cx="49.5" cy="370.9638" fill="#84BE84" rx="3" ry="3" style="stroke: #038048; stroke-width: 1.0;"/><text fill="#000000" font-family="sans-serif" font-size="11" lengthAdjust="spacingAndGlyphs" textLength="299" x="58.5" y="375.7227">String optimize(SourceElementStore,TargetElementStore)</text><polygon fill="#FFFF44" points="49.5,380.9457,53.5,384.9457,49.5,388.9457,45.5,384.9457" style="stroke: #B38D22; stroke-width: 1.0;"/><text fill="#000000" font-family="sans-serif" font-size="11" lengthAdjust="spacingAndGlyphs" textLength="240" x="58.5" y="390.7046">String optimizeIntern(List&lt;ClassificationTask&gt;)</text><polygon fill="#FFFF44" points="49.5,395.9276,53.5,399.9276,49.5,403.9276,45.5,399.9276" style="stroke: #B38D22; stroke-width: 1.0;"/><text fill="#000000" font-family="sans-serif" font-size="11" lengthAdjust="spacingAndGlyphs" textLength="198" x="58.5" y="405.6865">String cachedSanitizedRequest(String)</text><polygon fill="#FFFF44" points="49.5,410.9094,53.5,414.9094,49.5,418.9094,45.5,414.9094" style="stroke: #B38D22; stroke-width: 1.0;"/><text fill="#000000" font-family="sans-serif" font-size="11" lengthAdjust="spacingAndGlyphs" textLength="228" x="58.5" y="420.6684">String generateOptimizationPrompt(String)</text><polygon fill="#FFFF44" points="49.5,425.8913,53.5,429.8913,49.5,433.8913,45.5,429.8913" style="stroke: #B38D22; stroke-width: 1.0;"/><text fill="#000000" font-family="sans-serif" font-size="11" lengthAdjust="spacingAndGlyphs" textLength="283" x="58.5" y="435.6502">boolean isClassifiedCorrectly(String,ClassificationTask)</text><!--MD5=[b97effb6810440d2435e6b5315d9c551]
class edu.kit.kastel.sdq.lissa.ratlr.promptoptimizer.EvaluationResult--><rect fill="#FEFECE" filter="url(#f14fn5i4bijozj)" height="167.8551" id="edu.kit.kastel.sdq.lissa.ratlr.promptoptimizer.EvaluationResult" style="stroke: #A80036; stroke-width: 1.5;" width="273" x="539.5" y="62"/><ellipse cx="625.75" cy="78" fill="#ADD1B2" rx="11" ry="11" style="stroke: #A80036; stroke-width: 1.0;"/><path d="M628.7188,83.6406 Q628.1406,83.9375 627.5,84.0781 Q626.8594,84.2344 626.1563,84.2344 Q623.6563,84.2344 622.3281,82.5938 Q621.0156,80.9375 621.0156,77.8125 Q621.0156,74.6875 622.3281,73.0313 Q623.6563,71.375 626.1563,71.375 Q626.8594,71.375 627.5,71.5313 Q628.1563,71.6875 628.7188,71.9844 L628.7188,74.7031 Q628.0938,74.125 627.5,73.8594 Q626.9063,73.5781 626.2813,73.5781 Q624.9375,73.5781 624.25,74.6563 Q623.5625,75.7188 623.5625,77.8125 Q623.5625,79.9063 624.25,80.9844 Q624.9375,82.0469 626.2813,82.0469 Q626.9063,82.0469 627.5,81.7813 Q628.0938,81.5 628.7188,80.9219 L628.7188,83.6406 Z "/><text fill="#000000" font-family="sans-serif" font-size="12" lengthAdjust="spacingAndGlyphs" textLength="92" x="646.25" y="82.656">EvaluationResult</text><line style="stroke: #A80036; stroke-width: 1.5;" x1="540.5" x2="811.5" y1="94" y2="94"/><line style="stroke: #A80036; stroke-width: 1.5;" x1="540.5" x2="811.5" y1="102" y2="102"/><ellipse cx="550.5" cy="113" fill="#84BE84" rx="3" ry="3" style="stroke: #038048; stroke-width: 1.0;"/><text fill="#000000" font-family="sans-serif" font-size="11" lengthAdjust="spacingAndGlyphs" textLength="247" x="559.5" y="117.7589">«Create» EvaluationResult(Element,Element,T,T)</text><ellipse cx="550.5" cy="127.9819" fill="#84BE84" rx="3" ry="3" style="stroke: #038048; stroke-width: 1.0;"/><text fill="#000000" font-family="sans-serif" font-size="11" lengthAdjust="spacingAndGlyphs" textLength="176" x="559.5" y="132.7408">String getTextualRepresentation()</text><ellipse cx="550.5" cy="142.9638" fill="#84BE84" rx="3" ry="3" style="stroke: #038048; stroke-width: 1.0;"/><text fill="#000000" font-family="sans-serif" font-size="11" lengthAdjust="spacingAndGlyphs" textLength="99" x="559.5" y="147.7227">boolean isCorrect()</text><ellipse cx="550.5" cy="157.9457" fill="#84BE84" rx="3" ry="3" style="stroke: #038048; stroke-width: 1.0;"/><text fill="#000000" font-family="sans-serif" font-size="11" lengthAdjust="spacingAndGlyphs" textLength="84" x="559.5" y="162.7046">String toString()</text><ellipse cx="550.5" cy="172.9276" fill="#84BE84" rx="3" ry="3" style="stroke: #038048; stroke-width: 1.0;"/><text fill="#000000" font-family="sans-serif" font-size="11" lengthAdjust="spacingAndGlyphs" textLength="81" x="559.5" y="177.6865">T classification()</text><ellipse cx="550.5" cy="187.9094" fill="#84BE84" rx="3" ry="3" style="stroke: #038048; stroke-width: 1.0;"/><text fill="#000000" font-family="sans-serif" font-size="11" lengthAdjust="spacingAndGlyphs" textLength="86" x="559.5" y="192.6684">Element source()</text><ellipse cx="550.5" cy="202.8913" fill="#84BE84" rx="3" ry="3" style="stroke: #038048; stroke-width: 1.0;"/><text fill="#000000" font-family="sans-serif" font-size="11" lengthAdjust="spacingAndGlyphs" textLength="83" x="559.5" y="207.6502">Element target()</text><ellipse cx="550.5" cy="217.8732" fill="#84BE84" rx="3" ry="3" style="stroke: #038048; stroke-width: 1.0;"/><text fill="#000000" font-family="sans-serif" font-size="11" lengthAdjust="spacingAndGlyphs" textLength="84" x="559.5" y="222.6321">T groundTruth()</text><!--MD5=[961c246b75e388946b469da049a9f2ab]
class edu.kit.kastel.sdq.lissa.ratlr.promptoptimizer.IterativeFeedbackOptimizer--><rect fill="#FEFECE" filter="url(#f14fn5i4bijozj)" height="77.9638" id="edu.kit.kastel.sdq.lissa.ratlr.promptoptimizer.IterativeFeedbackOptimizer" style="stroke: #A80036; stroke-width: 1.5;" width="457" x="626.5" y="525.5"/><ellipse cx="773.25" cy="541.5" fill="#ADD1B2" rx="11" ry="11" style="stroke: #A80036; stroke-width: 1.0;"/><path d="M776.2188,547.1406 Q775.6406,547.4375 775,547.5781 Q774.3594,547.7344 773.6563,547.7344 Q771.1563,547.7344 769.8281,546.0938 Q768.5156,544.4375 768.5156,541.3125 Q768.5156,538.1875 769.8281,536.5313 Q771.1563,534.875 773.6563,534.875 Q774.3594,534.875 775,535.0313 Q775.6563,535.1875 776.2188,535.4844 L776.2188,538.2031 Q775.5938,537.625 775,537.3594 Q774.4063,537.0781 773.7813,537.0781 Q772.4375,537.0781 771.75,538.1563 Q771.0625,539.2188 771.0625,541.3125 Q771.0625,543.4063 771.75,544.4844 Q772.4375,545.5469 773.7813,545.5469 Q774.4063,545.5469 775,545.2813 Q775.5938,545 776.2188,544.4219 L776.2188,547.1406 Z "/><text fill="#000000" font-family="sans-serif" font-size="12" lengthAdjust="spacingAndGlyphs" textLength="155" x="793.75" y="546.156">IterativeFeedbackOptimizer</text><line style="stroke: #A80036; stroke-width: 1.5;" x1="627.5" x2="1082.5" y1="557.5" y2="557.5"/><line style="stroke: #A80036; stroke-width: 1.5;" x1="627.5" x2="1082.5" y1="565.5" y2="565.5"/><ellipse cx="637.5" cy="576.5" fill="#84BE84" rx="3" ry="3" style="stroke: #038048; stroke-width: 1.0;"/><text fill="#000000" font-family="sans-serif" font-size="11" lengthAdjust="spacingAndGlyphs" textLength="431" x="646.5" y="581.2589">«Create» IterativeFeedbackOptimizer(ModuleConfiguration,Set&lt;TraceLink&gt;,Metric)</text><polygon fill="#FFFF44" points="637.5,586.4819,641.5,590.4819,637.5,594.4819,633.5,590.4819" style="stroke: #B38D22; stroke-width: 1.0;"/><text fill="#000000" font-family="sans-serif" font-size="11" lengthAdjust="spacingAndGlyphs" textLength="240" x="646.5" y="596.2408">String optimizeIntern(List&lt;ClassificationTask&gt;)</text><!--MD5=[c79cf5702e649aee7ce73e6654ab1a19]
class edu.kit.kastel.sdq.lissa.ratlr.promptoptimizer.MockOptimizer--><rect fill="#FEFECE" filter="url(#f14fn5i4bijozj)" height="77.9638" id="edu.kit.kastel.sdq.lissa.ratlr.promptoptimizer.MockOptimizer" style="stroke: #A80036; stroke-width: 1.5;" width="325" x="498.5" y="327.5"/><ellipse cx="614.25" cy="343.5" fill="#ADD1B2" rx="11" ry="11" style="stroke: #A80036; stroke-width: 1.0;"/><path d="M617.2188,349.1406 Q616.6406,349.4375 616,349.5781 Q615.3594,349.7344 614.6563,349.7344 Q612.1563,349.7344 610.8281,348.0938 Q609.5156,346.4375 609.5156,343.3125 Q609.5156,340.1875 610.8281,338.5313 Q612.1563,336.875 614.6563,336.875 Q615.3594,336.875 616,337.0313 Q616.6563,337.1875 617.2188,337.4844 L617.2188,340.2031 Q616.5938,339.625 616,339.3594 Q615.4063,339.0781 614.7813,339.0781 Q613.4375,339.0781 612.75,340.1563 Q612.0625,341.2188 612.0625,343.3125 Q612.0625,345.4063 612.75,346.4844 Q613.4375,347.5469 614.7813,347.5469 Q615.4063,347.5469 616,347.2813 Q616.5938,347 617.2188,346.4219 L617.2188,349.1406 Z "/><text fill="#000000" font-family="sans-serif" font-size="12" lengthAdjust="spacingAndGlyphs" textLength="85" x="634.75" y="348.156">MockOptimizer</text><line style="stroke: #A80036; stroke-width: 1.5;" x1="499.5" x2="822.5" y1="359.5" y2="359.5"/><line style="stroke: #A80036; stroke-width: 1.5;" x1="499.5" x2="822.5" y1="367.5" y2="367.5"/><ellipse cx="509.5" cy="378.5" fill="#84BE84" rx="3" ry="3" style="stroke: #038048; stroke-width: 1.0;"/><text fill="#000000" font-family="sans-serif" font-size="11" lengthAdjust="spacingAndGlyphs" textLength="135" x="518.5" y="383.2589">«Create» MockOptimizer()</text><ellipse cx="509.5" cy="393.4819" fill="#84BE84" rx="3" ry="3" style="stroke: #038048; stroke-width: 1.0;"/><text fill="#000000" font-family="sans-serif" font-size="11" lengthAdjust="spacingAndGlyphs" textLength="299" x="518.5" y="398.2408">String optimize(SourceElementStore,TargetElementStore)</text><!--MD5=[bd337617f36f6bd64a27a9cefd6afed0]
class edu.kit.kastel.sdq.lissa.ratlr.promptoptimizer.PromptOptimizationUtils--><rect fill="#FEFECE" filter="url(#f14fn5i4bijozj)" height="107.9276" id="edu.kit.kastel.sdq.lissa.ratlr.promptoptimizer.PromptOptimizationUtils" style="stroke: #A80036; stroke-width: 1.5;" width="599" x="847.5" y="92"/><ellipse cx="1074.25" cy="108" fill="#ADD1B2" rx="11" ry="11" style="stroke: #A80036; stroke-width: 1.0;"/><path d="M1077.2188,113.6406 Q1076.6406,113.9375 1076,114.0781 Q1075.3594,114.2344 1074.6563,114.2344 Q1072.1563,114.2344 1070.8281,112.5938 Q1069.5156,110.9375 1069.5156,107.8125 Q1069.5156,104.6875 1070.8281,103.0313 Q1072.1563,101.375 1074.6563,101.375 Q1075.3594,101.375 1076,101.5313 Q1076.6563,101.6875 1077.2188,101.9844 L1077.2188,104.7031 Q1076.5938,104.125 1076,103.8594 Q1075.4063,103.5781 1074.7813,103.5781 Q1073.4375,103.5781 1072.75,104.6563 Q1072.0625,105.7188 1072.0625,107.8125 Q1072.0625,109.9063 1072.75,110.9844 Q1073.4375,112.0469 1074.7813,112.0469 Q1075.4063,112.0469 1076,111.7813 Q1076.5938,111.5 1077.2188,110.9219 L1077.2188,113.6406 Z "/><text fill="#000000" font-family="sans-serif" font-size="12" lengthAdjust="spacingAndGlyphs" textLength="137" x="1094.75" y="112.656">PromptOptimizationUtils</text><line style="stroke: #A80036; stroke-width: 1.5;" x1="848.5" x2="1445.5" y1="124" y2="124"/><line style="stroke: #A80036; stroke-width: 1.5;" x1="848.5" x2="1445.5" y1="132" y2="132"/><ellipse cx="858.5" cy="143" fill="#84BE84" rx="3" ry="3" style="stroke: #038048; stroke-width: 1.0;"/><text fill="#000000" font-family="sans-serif" font-size="11" lengthAdjust="spacingAndGlyphs" text-decoration="underline" textLength="256" x="867.5" y="147.7589">String parseTaggedTextFirst(String,String,String)</text><ellipse cx="858.5" cy="157.9819" fill="#84BE84" rx="3" ry="3" style="stroke: #038048; stroke-width: 1.0;"/><text fill="#000000" font-family="sans-serif" font-size="11" lengthAdjust="spacingAndGlyphs" text-decoration="underline" textLength="263" x="867.5" y="162.7408">List&lt;String&gt; parseTaggedText(String,String,String)</text><ellipse cx="858.5" cy="172.9638" fill="#84BE84" rx="3" ry="3" style="stroke: #038048; stroke-width: 1.0;"/><text fill="#000000" font-family="sans-serif" font-size="11" lengthAdjust="spacingAndGlyphs" text-decoration="underline" textLength="152" x="867.5" y="177.7227">String sanitizePrompt(String)</text><ellipse cx="858.5" cy="187.9457" fill="#84BE84" rx="3" ry="3" style="stroke: #038048; stroke-width: 1.0;"/><text fill="#000000" font-family="sans-serif" font-size="11" lengthAdjust="spacingAndGlyphs" text-decoration="underline" textLength="573" x="867.5" y="192.7046">List&lt;ClassificationTask&gt; getClassificationTasks(SourceElementStore,TargetElementStore,Collection&lt;TraceLink&gt;)</text><!--MD5=[daf49faec8cef32c589d8d7380d143cd]
class edu.kit.kastel.sdq.lissa.ratlr.promptoptimizer.OptimizerFactory--><rect fill="#FEFECE" filter="url(#f14fn5i4bijozj)" height="77.9638" id="edu.kit.kastel.sdq.lissa.ratlr.promptoptimizer.OptimizerFactory" style="stroke: #A80036; stroke-width: 1.5;" width="588" x="859" y="327.5"/><ellipse cx="1100.75" cy="343.5" fill="#ADD1B2" rx="11" ry="11" style="stroke: #A80036; stroke-width: 1.0;"/><path d="M1103.7188,349.1406 Q1103.1406,349.4375 1102.5,349.5781 Q1101.8594,349.7344 1101.1563,349.7344 Q1098.6563,349.7344 1097.3281,348.0938 Q1096.0156,346.4375 1096.0156,343.3125 Q1096.0156,340.1875 1097.3281,338.5313 Q1098.6563,336.875 1101.1563,336.875 Q1101.8594,336.875 1102.5,337.0313 Q1103.1563,337.1875 1103.7188,337.4844 L1103.7188,340.2031 Q1103.0938,339.625 1102.5,339.3594 Q1101.9063,339.0781 1101.2813,339.0781 Q1099.9375,339.0781 1099.25,340.1563 Q1098.5625,341.2188 1098.5625,343.3125 Q1098.5625,345.4063 1099.25,346.4844 Q1099.9375,347.5469 1101.2813,347.5469 Q1101.9063,347.5469 1102.5,347.2813 Q1103.0938,347 1103.7188,346.4219 L1103.7188,349.1406 Z "/><text fill="#000000" font-family="sans-serif" font-size="12" lengthAdjust="spacingAndGlyphs" textLength="96" x="1121.25" y="348.156">OptimizerFactory</text><line style="stroke: #A80036; stroke-width: 1.5;" x1="860" x2="1446" y1="359.5" y2="359.5"/><ellipse cx="870" cy="370.5" fill="none" rx="3" ry="3" style="stroke: #038048; stroke-width: 1.0;"/><text fill="#000000" font-family="sans-serif" font-size="11" lengthAdjust="spacingAndGlyphs" text-decoration="underline" textLength="180" x="879" y="375.2589">String CONFIG_NAME_SEPARATOR</text><line style="stroke: #A80036; stroke-width: 1.5;" x1="860" x2="1446" y1="382.4819" y2="382.4819"/><ellipse cx="870" cy="393.4819" fill="#84BE84" rx="3" ry="3" style="stroke: #038048; stroke-width: 1.0;"/><text fill="#000000" font-family="sans-serif" font-size="11" lengthAdjust="spacingAndGlyphs" text-decoration="underline" textLength="562" x="879" y="398.2408">PromptOptimizer createOptimizer(ModuleConfiguration,Set&lt;TraceLink&gt;,Classifier,Metric,AbstractEvaluator)</text><!--MD5=[c0beb91cd66c570da328960e4d27ce02]
reverse link edu.kit.kastel.sdq.lissa.ratlr.promptoptimizer.IterativeOptimizer to edu.kit.kastel.sdq.lissa.ratlr.promptoptimizer.AutomaticPromptOptimizer--><path d="M282.02,462.5 C286.5,476.21 291,490 295.18,502.79 " fill="none" id="edu.kit.kastel.sdq.lissa.ratlr.promptoptimizer.IterativeOptimizer&lt;-edu.kit.kastel.sdq.lissa.ratlr.promptoptimizer.AutomaticPromptOptimizer" style="stroke: #A80036; stroke-width: 1.0;"/><polygon fill="none" points="275.3,464.46,275.74,443.28,288.61,460.12,275.3,464.46" style="stroke: #A80036; stroke-width: 1.0;"/><!--MD5=[d4ca6f42a78f29de94ca85362e2a9b50]
reverse link edu.kit.kastel.sdq.lissa.ratlr.promptoptimizer.PromptOptimizer to edu.kit.kastel.sdq.lissa.ratlr.promptoptimizer.IterativeOptimizer--><path d="M285.58,197.62 C279.95,224.93 272.9,259.18 266.63,289.61 " fill="none" id="edu.kit.kastel.sdq.lissa.ratlr.promptoptimizer.PromptOptimizer&lt;-edu.kit.kastel.sdq.lissa.ratlr.promptoptimizer.IterativeOptimizer" style="stroke: #A80036; stroke-width: 1.0; stroke-dasharray: 7.0,7.0;"/><polygon fill="none" points="278.76,196.02,289.65,177.84,292.47,198.84,278.76,196.02" style="stroke: #A80036; stroke-width: 1.0;"/><!--MD5=[248ccb1f6f7cd0b5f3c7769630812235]
reverse link edu.kit.kastel.sdq.lissa.ratlr.promptoptimizer.IterativeOptimizer to edu.kit.kastel.sdq.lissa.ratlr.promptoptimizer.IterativeFeedbackOptimizer--><path d="M482.87,443.6 C578.26,474.59 667.25,503.26 736.2,525.41 " fill="none" id="edu.kit.kastel.sdq.lissa.ratlr.promptoptimizer.IterativeOptimizer&lt;-edu.kit.kastel.sdq.lissa.ratlr.promptoptimizer.IterativeFeedbackOptimizer" style="stroke: #A80036; stroke-width: 1.0;"/><polygon fill="none" points="480.56,450.21,463.7,437.37,484.89,436.9,480.56,450.21" style="stroke: #A80036; stroke-width: 1.0;"/><!--MD5=[eb80ff1bcbb9ffd02c39a639865629e9]
reverse link edu.kit.kastel.sdq.lissa.ratlr.promptoptimizer.PromptOptimizer to edu.kit.kastel.sdq.lissa.ratlr.promptoptimizer.MockOptimizer--><path d="M364.61,188.07 C431.45,228.08 532.23,288.42 597.33,327.39 " fill="none" id="edu.kit.kastel.sdq.lissa.ratlr.promptoptimizer.PromptOptimizer&lt;-edu.kit.kastel.sdq.lissa.ratlr.promptoptimizer.MockOptimizer" style="stroke: #A80036; stroke-width: 1.0; stroke-dasharray: 7.0,7.0;"/><polygon fill="none" points="360.7,193.89,347.14,177.61,367.89,181.88,360.7,193.89" style="stroke: #A80036; stroke-width: 1.0;"/><!--MD5=[864dd30c22ea54c746f7efbad4112f60]
link edu.kit.kastel.sdq.lissa.ratlr.promptoptimizer.EvaluationResult to edu.kit.kastel.sdq.lissa.ratlr.promptoptimizer.PromptOptimizationUtils--><!--MD5=[50e8852b6bc75c80b612c560ae09340b]
link edu.kit.kastel.sdq.lissa.ratlr.promptoptimizer.EvaluationResult to edu.kit.kastel.sdq.lissa.ratlr.promptoptimizer.OptimizerFactory--><!--MD5=[a5a126db733662799010b1a3b0fc28b3]
@startuml
class edu.kit.kastel.sdq.lissa.ratlr.promptoptimizer.AutomaticPromptOptimizer {
+ {static} String START_TAG
+ {static} String END_TAG
+ {static} String SECTION_HEADER_PREFIX
+ <<Create>> AutomaticPromptOptimizer(ModuleConfiguration,Set<TraceLink>,Metric,AbstractEvaluator)
+ String optimize(SourceElementStore,TargetElementStore)
}

interface edu.kit.kastel.sdq.lissa.ratlr.promptoptimizer.PromptOptimizer {
~ String optimize(SourceElementStore,TargetElementStore)
}

class edu.kit.kastel.sdq.lissa.ratlr.promptoptimizer.IterativeOptimizer {
+ <<Create>> IterativeOptimizer(ModuleConfiguration,Set<TraceLink>,Metric)
+ <<Create>> IterativeOptimizer(ModuleConfiguration,Set<TraceLink>,Metric,int)
+ String optimize(SourceElementStore,TargetElementStore)
# String optimizeIntern(List<ClassificationTask>)
# String cachedSanitizedRequest(String)
# String generateOptimizationPrompt(String)
# boolean isClassifiedCorrectly(String,ClassificationTask)
}

class edu.kit.kastel.sdq.lissa.ratlr.promptoptimizer.EvaluationResult {
+ <<Create>> EvaluationResult(Element,Element,T,T)
+ String getTextualRepresentation()
+ boolean isCorrect()
+ String toString()
+ T classification()
+ Element source()
+ Element target()
+ T groundTruth()
}

class edu.kit.kastel.sdq.lissa.ratlr.promptoptimizer.IterativeFeedbackOptimizer {
+ <<Create>> IterativeFeedbackOptimizer(ModuleConfiguration,Set<TraceLink>,Metric)
# String optimizeIntern(List<ClassificationTask>)
}

class edu.kit.kastel.sdq.lissa.ratlr.promptoptimizer.MockOptimizer {
+ <<Create>> MockOptimizer()
+ String optimize(SourceElementStore,TargetElementStore)
}

class edu.kit.kastel.sdq.lissa.ratlr.promptoptimizer.PromptOptimizationUtils {
+ {static} String parseTaggedTextFirst(String,String,String)
+ {static} List<String> parseTaggedText(String,String,String)
+ {static} String sanitizePrompt(String)
+ {static} List<ClassificationTask> getClassificationTasks(SourceElementStore,TargetElementStore,Collection<TraceLink>)
}

class edu.kit.kastel.sdq.lissa.ratlr.promptoptimizer.OptimizerFactory {
+ {static} String CONFIG_NAME_SEPARATOR
+ {static} PromptOptimizer createOptimizer(ModuleConfiguration,Set<TraceLink>,Classifier,Metric,AbstractEvaluator)
}




edu.kit.kastel.sdq.lissa.ratlr.promptoptimizer.IterativeOptimizer <|- - edu.kit.kastel.sdq.lissa.ratlr.promptoptimizer.AutomaticPromptOptimizer
edu.kit.kastel.sdq.lissa.ratlr.promptoptimizer.PromptOptimizer <|.. edu.kit.kastel.sdq.lissa.ratlr.promptoptimizer.IterativeOptimizer
edu.kit.kastel.sdq.lissa.ratlr.promptoptimizer.IterativeOptimizer <|- - edu.kit.kastel.sdq.lissa.ratlr.promptoptimizer.IterativeFeedbackOptimizer
edu.kit.kastel.sdq.lissa.ratlr.promptoptimizer.PromptOptimizer <|.. edu.kit.kastel.sdq.lissa.ratlr.promptoptimizer.MockOptimizer
@enduml

PlantUML version 1.2020.02(Sun Mar 01 11:22:07 CET 2020)
(GPL source distribution)
Java Runtime: OpenJDK Runtime Environment
JVM: OpenJDK 64-Bit Server VM
Java Version: 21.0.8+9-Ubuntu-0ubuntu124.04.1
Operating System: Linux
Default Encoding: UTF-8
Language: en
Country: null
--></g></svg>