<?xml version="1.0" encoding="UTF-8" standalone="no"?><svg xmlns="http://www.w3.org/2000/svg" xmlns:xlink="http://www.w3.org/1999/xlink" contentScriptType="application/ecmascript" contentStyleType="text/css" height="567px" preserveAspectRatio="none" style="width:1159px;height:567px;" version="1.1" viewBox="0 0 1159 567" width="1159px" zoomAndPan="magnify"><defs><filter height="300%" id="f1xo5m8fd4zplq" width="300%" x="-1" y="-1"><feGaussianBlur result="blurOut" stdDeviation="2.0"/><feColorMatrix in="blurOut" result="blurOut2" type="matrix" values="0 0 0 0 0 0 0 0 0 0 0 0 0 0 0 0 0 0 .4 0"/><feOffset dx="4.0" dy="4.0" in="blurOut2" result="blurOut3"/><feBlend in="SourceGraphic" in2="blurOut3" mode="normal"/></filter></defs><g><!--MD5=[44a41aac9f8521bbd1caa3a7cf332aa7]
cluster edu.kit.kastel.sdq.lissa.ratlr.promptmetric--><polygon fill="#FFFFFF" filter="url(#f1xo5m8fd4zplq)" points="464,24,764,24,771,49.0679,836,49.0679,836,186,464,186,464,24" style="stroke: #000000; stroke-width: 1.5;"/><line style="stroke: #000000; stroke-width: 1.5;" x1="464" x2="771" y1="49.0679" y2="49.0679"/><text fill="#000000" font-family="sans-serif" font-size="14" font-weight="bold" lengthAdjust="spacingAndGlyphs" textLength="294" x="468" y="40.9659">edu.kit.kastel.sdq.lissa.ratlr.promptmetric</text><!--MD5=[90436e0e50eaa0c9b5577a48d984bcba]
cluster edu.kit.kastel.sdq.lissa.ratlr.promptmetric.reductor--><polygon fill="#FFFFFF" filter="url(#f1xo5m8fd4zplq)" points="22,225,386,225,393,250.0679,494,250.0679,494,540,22,540,22,225" style="stroke: #000000; stroke-width: 1.5;"/><line style="stroke: #000000; stroke-width: 1.5;" x1="22" x2="393" y1="250.0679" y2="250.0679"/><text fill="#000000" font-family="sans-serif" font-size="14" font-weight="bold" lengthAdjust="spacingAndGlyphs" textLength="358" x="26" y="241.9659">edu.kit.kastel.sdq.lissa.ratlr.promptmetric.reductor</text><!--MD5=[bc9ac9f1dcaa544806e74b8daa892fc2]
cluster edu.kit.kastel.sdq.lissa.ratlr.promptmetric.scorer--><polygon fill="#FFFFFF" filter="url(#f1xo5m8fd4zplq)" points="518,210,865,210,872,235.0679,1137,235.0679,1137,555,518,555,518,210" style="stroke: #000000; stroke-width: 1.5;"/><line style="stroke: #000000; stroke-width: 1.5;" x1="518" x2="872" y1="235.0679" y2="235.0679"/><text fill="#000000" font-family="sans-serif" font-size="14" font-weight="bold" lengthAdjust="spacingAndGlyphs" textLength="341" x="522" y="226.9659">edu.kit.kastel.sdq.lissa.ratlr.promptmetric.scorer</text><!--MD5=[bd234a1bc5dddf55c6c5077cb326960d]
class edu.kit.kastel.sdq.lissa.ratlr.promptmetric.PointwiseMetric--><rect fill="#FEFECE" filter="url(#f1xo5m8fd4zplq)" height="107.9276" id="edu.kit.kastel.sdq.lissa.ratlr.promptmetric.PointwiseMetric" style="stroke: #A80036; stroke-width: 1.5;" width="339" x="480.5" y="62"/><ellipse cx="601.25" cy="78" fill="#ADD1B2" rx="11" ry="11" style="stroke: #A80036; stroke-width: 1.0;"/><path d="M604.2188,83.6406 Q603.6406,83.9375 603,84.0781 Q602.3594,84.2344 601.6563,84.2344 Q599.1563,84.2344 597.8281,82.5938 Q596.5156,80.9375 596.5156,77.8125 Q596.5156,74.6875 597.8281,73.0313 Q599.1563,71.375 601.6563,71.375 Q602.3594,71.375 603,71.5313 Q603.6563,71.6875 604.2188,71.9844 L604.2188,74.7031 Q603.5938,74.125 603,73.8594 Q602.4063,73.5781 601.7813,73.5781 Q600.4375,73.5781 599.75,74.6563 Q599.0625,75.7188 599.0625,77.8125 Q599.0625,79.9063 599.75,80.9844 Q600.4375,82.0469 601.7813,82.0469 Q602.4063,82.0469 603,81.7813 Q603.5938,81.5 604.2188,80.9219 L604.2188,83.6406 Z "/><text fill="#000000" font-family="sans-serif" font-size="12" lengthAdjust="spacingAndGlyphs" textLength="89" x="621.75" y="82.656">PointwiseMetric</text><line style="stroke: #A80036; stroke-width: 1.5;" x1="481.5" x2="818.5" y1="94" y2="94"/><line style="stroke: #A80036; stroke-width: 1.5;" x1="481.5" x2="818.5" y1="102" y2="102"/><ellipse cx="491.5" cy="113" fill="#84BE84" rx="3" ry="3" style="stroke: #038048; stroke-width: 1.0;"/><text fill="#000000" font-family="sans-serif" font-size="11" lengthAdjust="spacingAndGlyphs" textLength="303" x="500.5" y="117.7589">«Create» PointwiseMetric(ModuleConfiguration,Classifier)</text><ellipse cx="491.5" cy="127.9819" fill="#84BE84" rx="3" ry="3" style="stroke: #038048; stroke-width: 1.0;"/><text fill="#000000" font-family="sans-serif" font-size="11" lengthAdjust="spacingAndGlyphs" textLength="313" x="500.5" y="132.7408">List&lt;Double&gt; getMetric(List&lt;String&gt;,List&lt;ClassificationTask&gt;)</text><ellipse cx="491.5" cy="142.9638" fill="#84BE84" rx="3" ry="3" style="stroke: #038048; stroke-width: 1.0;"/><text fill="#000000" font-family="sans-serif" font-size="11" lengthAdjust="spacingAndGlyphs" textLength="253" x="500.5" y="147.7227">Double getMetric(String,List&lt;ClassificationTask&gt;)</text><ellipse cx="491.5" cy="157.9457" fill="#84BE84" rx="3" ry="3" style="stroke: #038048; stroke-width: 1.0;"/><text fill="#000000" font-family="sans-serif" font-size="11" lengthAdjust="spacingAndGlyphs" textLength="88" x="500.5" y="162.7046">String getName()</text><!--MD5=[9a0fe44d9331a03dd62452ca6f63085b]
class edu.kit.kastel.sdq.lissa.ratlr.promptmetric.reductor.Reductor--><rect fill="#FEFECE" filter="url(#f1xo5m8fd4zplq)" height="77.9638" id="edu.kit.kastel.sdq.lissa.ratlr.promptmetric.reductor.Reductor" style="stroke: #A80036; stroke-width: 1.5;" width="210" x="268" y="263"/><ellipse cx="344.75" cy="279" fill="#B4A7E5" rx="11" ry="11" style="stroke: #A80036; stroke-width: 1.0;"/><path d="M340.6719,274.7656 L340.6719,272.6094 L348.0625,272.6094 L348.0625,274.7656 L345.5938,274.7656 L345.5938,282.8438 L348.0625,282.8438 L348.0625,285 L340.6719,285 L340.6719,282.8438 L343.1406,282.8438 L343.1406,274.7656 L340.6719,274.7656 Z "/><text fill="#000000" font-family="sans-serif" font-size="12" font-style="italic" lengthAdjust="spacingAndGlyphs" textLength="48" x="365.25" y="283.656">Reductor</text><line style="stroke: #A80036; stroke-width: 1.5;" x1="269" x2="477" y1="295" y2="295"/><line style="stroke: #A80036; stroke-width: 1.5;" x1="269" x2="477" y1="303" y2="303"/><polygon fill="#4177AF" points="279,310,275,316,283,316" style="stroke: #1963A0; stroke-width: 1.0;"/><text fill="#000000" font-family="sans-serif" font-size="11" lengthAdjust="spacingAndGlyphs" textLength="184" x="288" y="318.7589">double reduce(Collection&lt;Double&gt;)</text><polygon fill="#4177AF" points="279,324.9819,275,330.9819,283,330.9819" style="stroke: #1963A0; stroke-width: 1.0;"/><text fill="#000000" font-family="sans-serif" font-size="11" lengthAdjust="spacingAndGlyphs" textLength="88" x="288" y="333.7408">String getName()</text><!--MD5=[7b8f670a894d2d65835b4f5cb52fc0ce]
class edu.kit.kastel.sdq.lissa.ratlr.promptmetric.reductor.ReductorFactory--><rect fill="#FEFECE" filter="url(#f1xo5m8fd4zplq)" height="62.9819" id="edu.kit.kastel.sdq.lissa.ratlr.promptmetric.reductor.ReductorFactory" style="stroke: #A80036; stroke-width: 1.5;" width="195" x="37.5" y="270.5"/><ellipse cx="85.25" cy="286.5" fill="#ADD1B2" rx="11" ry="11" style="stroke: #A80036; stroke-width: 1.0;"/><path d="M88.2188,292.1406 Q87.6406,292.4375 87,292.5781 Q86.3594,292.7344 85.6563,292.7344 Q83.1563,292.7344 81.8281,291.0938 Q80.5156,289.4375 80.5156,286.3125 Q80.5156,283.1875 81.8281,281.5313 Q83.1563,279.875 85.6563,279.875 Q86.3594,279.875 87,280.0313 Q87.6563,280.1875 88.2188,280.4844 L88.2188,283.2031 Q87.5938,282.625 87,282.3594 Q86.4063,282.0781 85.7813,282.0781 Q84.4375,282.0781 83.75,283.1563 Q83.0625,284.2188 83.0625,286.3125 Q83.0625,288.4063 83.75,289.4844 Q84.4375,290.5469 85.7813,290.5469 Q86.4063,290.5469 87,290.2813 Q87.5938,290 88.2188,289.4219 L88.2188,292.1406 Z "/><text fill="#000000" font-family="sans-serif" font-size="12" lengthAdjust="spacingAndGlyphs" textLength="91" x="105.75" y="291.156">ReductorFactory</text><line style="stroke: #A80036; stroke-width: 1.5;" x1="38.5" x2="231.5" y1="302.5" y2="302.5"/><line style="stroke: #A80036; stroke-width: 1.5;" x1="38.5" x2="231.5" y1="310.5" y2="310.5"/><ellipse cx="48.5" cy="321.5" fill="#84BE84" rx="3" ry="3" style="stroke: #038048; stroke-width: 1.0;"/><text fill="#000000" font-family="sans-serif" font-size="11" lengthAdjust="spacingAndGlyphs" text-decoration="underline" textLength="169" x="57.5" y="326.2589">Reductor createReductor(String)</text><!--MD5=[d9a9989cd5f5938cf2384ba59d9c0f64]
class edu.kit.kastel.sdq.lissa.ratlr.promptmetric.reductor.MeanReductor--><rect fill="#FEFECE" filter="url(#f1xo5m8fd4zplq)" height="92.9457" id="edu.kit.kastel.sdq.lissa.ratlr.promptmetric.reductor.MeanReductor" style="stroke: #A80036; stroke-width: 1.5;" width="210" x="268" y="431"/><ellipse cx="327.75" cy="447" fill="#ADD1B2" rx="11" ry="11" style="stroke: #A80036; stroke-width: 1.0;"/><path d="M330.7188,452.6406 Q330.1406,452.9375 329.5,453.0781 Q328.8594,453.2344 328.1563,453.2344 Q325.6563,453.2344 324.3281,451.5938 Q323.0156,449.9375 323.0156,446.8125 Q323.0156,443.6875 324.3281,442.0313 Q325.6563,440.375 328.1563,440.375 Q328.8594,440.375 329.5,440.5313 Q330.1563,440.6875 330.7188,440.9844 L330.7188,443.7031 Q330.0938,443.125 329.5,442.8594 Q328.9063,442.5781 328.2813,442.5781 Q326.9375,442.5781 326.25,443.6563 Q325.5625,444.7188 325.5625,446.8125 Q325.5625,448.9063 326.25,449.9844 Q326.9375,451.0469 328.2813,451.0469 Q328.9063,451.0469 329.5,450.7813 Q330.0938,450.5 330.7188,449.9219 L330.7188,452.6406 Z "/><text fill="#000000" font-family="sans-serif" font-size="12" lengthAdjust="spacingAndGlyphs" textLength="82" x="348.25" y="451.656">MeanReductor</text><line style="stroke: #A80036; stroke-width: 1.5;" x1="269" x2="477" y1="463" y2="463"/><line style="stroke: #A80036; stroke-width: 1.5;" x1="269" x2="477" y1="471" y2="471"/><ellipse cx="279" cy="482" fill="#84BE84" rx="3" ry="3" style="stroke: #038048; stroke-width: 1.0;"/><text fill="#000000" font-family="sans-serif" font-size="11" lengthAdjust="spacingAndGlyphs" textLength="132" x="288" y="486.7589">«Create» MeanReductor()</text><ellipse cx="279" cy="496.9819" fill="#84BE84" rx="3" ry="3" style="stroke: #038048; stroke-width: 1.0;"/><text fill="#000000" font-family="sans-serif" font-size="11" lengthAdjust="spacingAndGlyphs" textLength="184" x="288" y="501.7408">double reduce(Collection&lt;Double&gt;)</text><ellipse cx="279" cy="511.9638" fill="#84BE84" rx="3" ry="3" style="stroke: #038048; stroke-width: 1.0;"/><text fill="#000000" font-family="sans-serif" font-size="11" lengthAdjust="spacingAndGlyphs" textLength="88" x="288" y="516.7227">String getName()</text><!--MD5=[7d732aa13097a948f369ac76f8a2abe9]
class edu.kit.kastel.sdq.lissa.ratlr.promptmetric.scorer.BinaryScorer--><rect fill="#FEFECE" filter="url(#f1xo5m8fd4zplq)" height="122.9094" id="edu.kit.kastel.sdq.lissa.ratlr.promptmetric.scorer.BinaryScorer" style="stroke: #A80036; stroke-width: 1.5;" width="385" x="735.5" y="416"/><ellipse cx="887.25" cy="432" fill="#ADD1B2" rx="11" ry="11" style="stroke: #A80036; stroke-width: 1.0;"/><path d="M890.2188,437.6406 Q889.6406,437.9375 889,438.0781 Q888.3594,438.2344 887.6563,438.2344 Q885.1563,438.2344 883.8281,436.5938 Q882.5156,434.9375 882.5156,431.8125 Q882.5156,428.6875 883.8281,427.0313 Q885.1563,425.375 887.6563,425.375 Q888.3594,425.375 889,425.5313 Q889.6563,425.6875 890.2188,425.9844 L890.2188,428.7031 Q889.5938,428.125 889,427.8594 Q888.4063,427.5781 887.7813,427.5781 Q886.4375,427.5781 885.75,428.6563 Q885.0625,429.7188 885.0625,431.8125 Q885.0625,433.9063 885.75,434.9844 Q886.4375,436.0469 887.7813,436.0469 Q888.4063,436.0469 889,435.7813 Q889.5938,435.5 890.2188,434.9219 L890.2188,437.6406 Z "/><text fill="#000000" font-family="sans-serif" font-size="12" lengthAdjust="spacingAndGlyphs" textLength="73" x="907.75" y="436.656">BinaryScorer</text><line style="stroke: #A80036; stroke-width: 1.5;" x1="736.5" x2="1119.5" y1="448" y2="448"/><line style="stroke: #A80036; stroke-width: 1.5;" x1="736.5" x2="1119.5" y1="456" y2="456"/><ellipse cx="746.5" cy="467" fill="#84BE84" rx="3" ry="3" style="stroke: #038048; stroke-width: 1.0;"/><text fill="#000000" font-family="sans-serif" font-size="11" lengthAdjust="spacingAndGlyphs" textLength="123" x="755.5" y="471.7589">«Create» BinaryScorer()</text><ellipse cx="746.5" cy="481.9819" fill="#84BE84" rx="3" ry="3" style="stroke: #038048; stroke-width: 1.0;"/><text fill="#000000" font-family="sans-serif" font-size="11" lengthAdjust="spacingAndGlyphs" textLength="359" x="755.5" y="486.7408">List&lt;Double&gt; score(List&lt;ClassificationTask&gt;,List&lt;ClassificationResult&gt;)</text><ellipse cx="746.5" cy="496.9638" fill="#84BE84" rx="3" ry="3" style="stroke: #038048; stroke-width: 1.0;"/><text fill="#000000" font-family="sans-serif" font-size="11" lengthAdjust="spacingAndGlyphs" textLength="268" x="755.5" y="501.7227">double score(ClassificationTask,ClassificationResult)</text><ellipse cx="746.5" cy="511.9457" fill="#84BE84" rx="3" ry="3" style="stroke: #038048; stroke-width: 1.0;"/><text fill="#000000" font-family="sans-serif" font-size="11" lengthAdjust="spacingAndGlyphs" textLength="165" x="755.5" y="516.7046">double score(ClassificationTask)</text><ellipse cx="746.5" cy="526.9276" fill="#84BE84" rx="3" ry="3" style="stroke: #038048; stroke-width: 1.0;"/><text fill="#000000" font-family="sans-serif" font-size="11" lengthAdjust="spacingAndGlyphs" textLength="88" x="755.5" y="531.6865">String getName()</text><!--MD5=[e28166d9ea05563fa7072bf746d1d3a2]
class edu.kit.kastel.sdq.lissa.ratlr.promptmetric.scorer.Scorer--><rect fill="#FEFECE" filter="url(#f1xo5m8fd4zplq)" height="107.9276" id="edu.kit.kastel.sdq.lissa.ratlr.promptmetric.scorer.Scorer" style="stroke: #A80036; stroke-width: 1.5;" width="385" x="735.5" y="248"/><ellipse cx="906.75" cy="264" fill="#B4A7E5" rx="11" ry="11" style="stroke: #A80036; stroke-width: 1.0;"/><path d="M902.6719,259.7656 L902.6719,257.6094 L910.0625,257.6094 L910.0625,259.7656 L907.5938,259.7656 L907.5938,267.8438 L910.0625,267.8438 L910.0625,270 L902.6719,270 L902.6719,267.8438 L905.1406,267.8438 L905.1406,259.7656 L902.6719,259.7656 Z "/><text fill="#000000" font-family="sans-serif" font-size="12" font-style="italic" lengthAdjust="spacingAndGlyphs" textLength="34" x="927.25" y="268.656">Scorer</text><line style="stroke: #A80036; stroke-width: 1.5;" x1="736.5" x2="1119.5" y1="280" y2="280"/><line style="stroke: #A80036; stroke-width: 1.5;" x1="736.5" x2="1119.5" y1="288" y2="288"/><polygon fill="#4177AF" points="746.5,295,742.5,301,750.5,301" style="stroke: #1963A0; stroke-width: 1.0;"/><text fill="#000000" font-family="sans-serif" font-size="11" lengthAdjust="spacingAndGlyphs" textLength="359" x="755.5" y="303.7589">List&lt;Double&gt; score(List&lt;ClassificationTask&gt;,List&lt;ClassificationResult&gt;)</text><polygon fill="#4177AF" points="746.5,309.9819,742.5,315.9819,750.5,315.9819" style="stroke: #1963A0; stroke-width: 1.0;"/><text fill="#000000" font-family="sans-serif" font-size="11" lengthAdjust="spacingAndGlyphs" textLength="268" x="755.5" y="318.7408">double score(ClassificationTask,ClassificationResult)</text><polygon fill="#4177AF" points="746.5,324.9638,742.5,330.9638,750.5,330.9638" style="stroke: #1963A0; stroke-width: 1.0;"/><text fill="#000000" font-family="sans-serif" font-size="11" lengthAdjust="spacingAndGlyphs" textLength="165" x="755.5" y="333.7227">double score(ClassificationTask)</text><polygon fill="#4177AF" points="746.5,339.9457,742.5,345.9457,750.5,345.9457" style="stroke: #1963A0; stroke-width: 1.0;"/><text fill="#000000" font-family="sans-serif" font-size="11" lengthAdjust="spacingAndGlyphs" textLength="88" x="755.5" y="348.7046">String getName()</text><!--MD5=[76f11aba52c70f0721f71133bab603c3]
class edu.kit.kastel.sdq.lissa.ratlr.promptmetric.scorer.ScorerFactory--><rect fill="#FEFECE" filter="url(#f1xo5m8fd4zplq)" height="62.9819" id="edu.kit.kastel.sdq.lissa.ratlr.promptmetric.scorer.ScorerFactory" style="stroke: #A80036; stroke-width: 1.5;" width="167" x="533.5" y="270.5"/><ellipse cx="574.15" cy="286.5" fill="#ADD1B2" rx="11" ry="11" style="stroke: #A80036; stroke-width: 1.0;"/><path d="M577.1188,292.1406 Q576.5406,292.4375 575.9,292.5781 Q575.2594,292.7344 574.5563,292.7344 Q572.0563,292.7344 570.7281,291.0938 Q569.4156,289.4375 569.4156,286.3125 Q569.4156,283.1875 570.7281,281.5313 Q572.0563,279.875 574.5563,279.875 Q575.2594,279.875 575.9,280.0313 Q576.5563,280.1875 577.1188,280.4844 L577.1188,283.2031 Q576.4938,282.625 575.9,282.3594 Q575.3063,282.0781 574.6813,282.0781 Q573.3375,282.0781 572.65,283.1563 Q571.9625,284.2188 571.9625,286.3125 Q571.9625,288.4063 572.65,289.4844 Q573.3375,290.5469 574.6813,290.5469 Q575.3063,290.5469 575.9,290.2813 Q576.4938,290 577.1188,289.4219 L577.1188,292.1406 Z "/><text fill="#000000" font-family="sans-serif" font-size="12" lengthAdjust="spacingAndGlyphs" textLength="78" x="593.85" y="291.156">ScorerFactory</text><line style="stroke: #A80036; stroke-width: 1.5;" x1="534.5" x2="699.5" y1="302.5" y2="302.5"/><line style="stroke: #A80036; stroke-width: 1.5;" x1="534.5" x2="699.5" y1="310.5" y2="310.5"/><ellipse cx="544.5" cy="321.5" fill="#84BE84" rx="3" ry="3" style="stroke: #038048; stroke-width: 1.0;"/><text fill="#000000" font-family="sans-serif" font-size="11" lengthAdjust="spacingAndGlyphs" text-decoration="underline" textLength="141" x="553.5" y="326.2589">Scorer createScorer(String)</text><!--MD5=[6ad6c5fff2515de54d6d07ed6e63ae49]
reverse link edu.kit.kastel.sdq.lissa.ratlr.promptmetric.PointwiseMetric to edu.kit.kastel.sdq.lissa.ratlr.promptmetric.scorer.Scorer--><path d="M741.39,177.49 C775.75,200.23 814.51,225.88 847.77,247.9 " fill="none" id="edu.kit.kastel.sdq.lissa.ratlr.promptmetric.PointwiseMetric&lt;-edu.kit.kastel.sdq.lissa.ratlr.promptmetric.scorer.Scorer" style="stroke: #A80036; stroke-width: 1.0; stroke-dasharray: 7.0,7.0;"/><polygon fill="#A80036" points="730.41,170.22,733.2078,176.8662,740.4189,176.8398,737.6211,170.1936,730.41,170.22" style="stroke: #A80036; stroke-width: 1.0;"/><!--MD5=[b8a02cac8135925bdf65ff768631f063]
reverse link edu.kit.kastel.sdq.lissa.ratlr.promptmetric.PointwiseMetric to edu.kit.kastel.sdq.lissa.ratlr.promptmetric.reductor.Reductor--><path d="M555.6,177.35 C542.93,185.58 530.12,193.96 518,202 C488.15,221.79 455.16,244.27 428.19,262.8 " fill="none" id="edu.kit.kastel.sdq.lissa.ratlr.promptmetric.PointwiseMetric&lt;-edu.kit.kastel.sdq.lissa.ratlr.promptmetric.reductor.Reductor" style="stroke: #A80036; stroke-width: 1.0; stroke-dasharray: 7.0,7.0;"/><polygon fill="#A80036" points="566.69,170.16,559.4795,170.0698,556.623,176.691,563.8335,176.7812,566.69,170.16" style="stroke: #A80036; stroke-width: 1.0;"/><!--MD5=[64cd87cce448909a7f673783d9881889]
reverse link edu.kit.kastel.sdq.lissa.ratlr.promptmetric.scorer.Scorer to edu.kit.kastel.sdq.lissa.ratlr.promptmetric.scorer.BinaryScorer--><path d="M928,376.57 C928,389.69 928,403.23 928,415.93 " fill="none" id="edu.kit.kastel.sdq.lissa.ratlr.promptmetric.scorer.Scorer&lt;-edu.kit.kastel.sdq.lissa.ratlr.promptmetric.scorer.BinaryScorer" style="stroke: #A80036; stroke-width: 1.0; stroke-dasharray: 7.0,7.0;"/><polygon fill="none" points="921,376.47,928,356.47,935,376.47,921,376.47" style="stroke: #A80036; stroke-width: 1.0;"/><!--MD5=[27c4896a2aba6f77469b6851d21a2986]
reverse link edu.kit.kastel.sdq.lissa.ratlr.promptmetric.reductor.Reductor to edu.kit.kastel.sdq.lissa.ratlr.promptmetric.reductor.MeanReductor--><path d="M373,361.27 C373,383.94 373,409.52 373,430.81 " fill="none" id="edu.kit.kastel.sdq.lissa.ratlr.promptmetric.reductor.Reductor&lt;-edu.kit.kastel.sdq.lissa.ratlr.promptmetric.reductor.MeanReductor" style="stroke: #A80036; stroke-width: 1.0; stroke-dasharray: 7.0,7.0;"/><polygon fill="none" points="366,361.08,373,341.08,380,361.08,366,361.08" style="stroke: #A80036; stroke-width: 1.0;"/><!--MD5=[397244a42123f47fcdc4b8913b5cc1e8]
@startuml
class edu.kit.kastel.sdq.lissa.ratlr.promptmetric.PointwiseMetric {
+ <<Create>> PointwiseMetric(ModuleConfiguration,Classifier)
+ List<Double> getMetric(List<String>,List<ClassificationTask>)
+ Double getMetric(String,List<ClassificationTask>)
+ String getName()
}
interface edu.kit.kastel.sdq.lissa.ratlr.promptmetric.reductor.Reductor {
~ double reduce(Collection<Double>)
~ String getName()
}

class edu.kit.kastel.sdq.lissa.ratlr.promptmetric.reductor.ReductorFactory {
+ {static} Reductor createReductor(String)
}

class edu.kit.kastel.sdq.lissa.ratlr.promptmetric.scorer.BinaryScorer {
+ <<Create>> BinaryScorer()
+ List<Double> score(List<ClassificationTask>,List<ClassificationResult>)
+ double score(ClassificationTask,ClassificationResult)
+ double score(ClassificationTask)
+ String getName()
}

class edu.kit.kastel.sdq.lissa.ratlr.promptmetric.reductor.MeanReductor {
+ <<Create>> MeanReductor()
+ double reduce(Collection<Double>)
+ String getName()
}


interface edu.kit.kastel.sdq.lissa.ratlr.promptmetric.scorer.Scorer {
~ List<Double> score(List<ClassificationTask>,List<ClassificationResult>)
~ double score(ClassificationTask,ClassificationResult)
~ double score(ClassificationTask)
~ String getName()
}

class edu.kit.kastel.sdq.lissa.ratlr.promptmetric.scorer.ScorerFactory {
+ {static} Scorer createScorer(String)
}


edu.kit.kastel.sdq.lissa.ratlr.promptmetric.PointwiseMetric *.. edu.kit.kastel.sdq.lissa.ratlr.promptmetric.scorer.Scorer
edu.kit.kastel.sdq.lissa.ratlr.promptmetric.PointwiseMetric *.. edu.kit.kastel.sdq.lissa.ratlr.promptmetric.reductor.Reductor
edu.kit.kastel.sdq.lissa.ratlr.promptmetric.scorer.Scorer <|.. edu.kit.kastel.sdq.lissa.ratlr.promptmetric.scorer.BinaryScorer
edu.kit.kastel.sdq.lissa.ratlr.promptmetric.reductor.Reductor <|.. edu.kit.kastel.sdq.lissa.ratlr.promptmetric.reductor.MeanReductor
@enduml

PlantUML version 1.2020.02(Sun Mar 01 11:22:07 CET 2020)
(GPL source distribution)
Java Runtime: OpenJDK Runtime Environment
JVM: OpenJDK 64-Bit Server VM
Java Version: 21.0.8+9-Ubuntu-0ubuntu124.04.1
Operating System: Linux
Default Encoding: UTF-8
Language: en
Country: null
--></g></svg>