<?xml version="1.0" encoding="UTF-8" standalone="no"?><svg xmlns="http://www.w3.org/2000/svg" xmlns:xlink="http://www.w3.org/1999/xlink" contentScriptType="application/ecmascript" contentStyleType="text/css" height="336px" preserveAspectRatio="none" style="width:824px;height:336px;" version="1.1" viewBox="0 0 824 336" width="824px" zoomAndPan="magnify"><defs><filter height="300%" id="f6ojpxgpd955" width="300%" x="-1" y="-1"><feGaussianBlur result="blurOut" stdDeviation="2.0"/><feColorMatrix in="blurOut" result="blurOut2" type="matrix" values="0 0 0 0 0 0 0 0 0 0 0 0 0 0 0 0 0 0 .4 0"/><feOffset dx="4.0" dy="4.0" in="blurOut2" result="blurOut3"/><feBlend in="SourceGraphic" in2="blurOut3" mode="normal"/></filter></defs><g><!--MD5=[3fe583321ef47dd0a97db812059d90ed]
cluster edu.kit.kastel.sdq.lissa.ratlr.promptoptimizer.samplestrategy--><polygon fill="#FFFFFF" filter="url(#f6ojpxgpd955)" points="22,24,456,24,463,49.0679,802,49.0679,802,324,22,324,22,24" style="stroke: #000000; stroke-width: 1.5;"/><line style="stroke: #000000; stroke-width: 1.5;" x1="22" x2="463" y1="49.0679" y2="49.0679"/><text fill="#000000" font-family="sans-serif" font-size="14" font-weight="bold" lengthAdjust="spacingAndGlyphs" textLength="428" x="26" y="40.9659">edu.kit.kastel.sdq.lissa.ratlr.promptoptimizer.samplestrategy</text><!--MD5=[4d9085f57471be8fc6f09694783b276f]
class edu.kit.kastel.sdq.lissa.ratlr.promptoptimizer.samplestrategy.SamplerFactory--><rect fill="#FEFECE" filter="url(#f6ojpxgpd955)" height="107.9276" id="edu.kit.kastel.sdq.lissa.ratlr.promptoptimizer.samplestrategy.SamplerFactory" style="stroke: #A80036; stroke-width: 1.5;" width="325" x="461.5" y="62"/><ellipse cx="575.75" cy="78" fill="#ADD1B2" rx="11" ry="11" style="stroke: #A80036; stroke-width: 1.0;"/><path d="M578.7188,83.6406 Q578.1406,83.9375 577.5,84.0781 Q576.8594,84.2344 576.1563,84.2344 Q573.6563,84.2344 572.3281,82.5938 Q571.0156,80.9375 571.0156,77.8125 Q571.0156,74.6875 572.3281,73.0313 Q573.6563,71.375 576.1563,71.375 Q576.8594,71.375 577.5,71.5313 Q578.1563,71.6875 578.7188,71.9844 L578.7188,74.7031 Q578.0938,74.125 577.5,73.8594 Q576.9063,73.5781 576.2813,73.5781 Q574.9375,73.5781 574.25,74.6563 Q573.5625,75.7188 573.5625,77.8125 Q573.5625,79.9063 574.25,80.9844 Q574.9375,82.0469 576.2813,82.0469 Q576.9063,82.0469 577.5,81.7813 Q578.0938,81.5 578.7188,80.9219 L578.7188,83.6406 Z "/><text fill="#000000" font-family="sans-serif" font-size="12" lengthAdjust="spacingAndGlyphs" textLength="88" x="596.25" y="82.656">SamplerFactory</text><line style="stroke: #A80036; stroke-width: 1.5;" x1="462.5" x2="785.5" y1="94" y2="94"/><ellipse cx="472.5" cy="105" fill="none" rx="3" ry="3" style="stroke: #038048; stroke-width: 1.0;"/><text fill="#000000" font-family="sans-serif" font-size="11" lengthAdjust="spacingAndGlyphs" text-decoration="underline" textLength="118" x="481.5" y="109.7589">String FIRST_SAMPLER</text><ellipse cx="472.5" cy="119.9819" fill="none" rx="3" ry="3" style="stroke: #038048; stroke-width: 1.0;"/><text fill="#000000" font-family="sans-serif" font-size="11" lengthAdjust="spacingAndGlyphs" text-decoration="underline" textLength="140" x="481.5" y="124.7408">String ORDERED_SAMPLER</text><ellipse cx="472.5" cy="134.9638" fill="none" rx="3" ry="3" style="stroke: #038048; stroke-width: 1.0;"/><text fill="#000000" font-family="sans-serif" font-size="11" lengthAdjust="spacingAndGlyphs" text-decoration="underline" textLength="143" x="481.5" y="139.7227">String SHUFFLED_SAMPLER</text><line style="stroke: #A80036; stroke-width: 1.5;" x1="462.5" x2="785.5" y1="146.9457" y2="146.9457"/><ellipse cx="472.5" cy="157.9457" fill="#84BE84" rx="3" ry="3" style="stroke: #038048; stroke-width: 1.0;"/><text fill="#000000" font-family="sans-serif" font-size="11" lengthAdjust="spacingAndGlyphs" text-decoration="underline" textLength="299" x="481.5" y="162.7046">SampleStrategy createSampler(String,RandomGenerator)</text><!--MD5=[1b425d1166525b7b97ff62dc550a932f]
class edu.kit.kastel.sdq.lissa.ratlr.promptoptimizer.samplestrategy.OrderedFirstSampler--><rect fill="#FEFECE" filter="url(#f6ojpxgpd955)" height="62.9819" id="edu.kit.kastel.sdq.lissa.ratlr.promptoptimizer.samplestrategy.OrderedFirstSampler" style="stroke: #A80036; stroke-width: 1.5;" width="195" x="37.5" y="237.5"/><ellipse cx="72.75" cy="253.5" fill="#ADD1B2" rx="11" ry="11" style="stroke: #A80036; stroke-width: 1.0;"/><path d="M75.7188,259.1406 Q75.1406,259.4375 74.5,259.5781 Q73.8594,259.7344 73.1563,259.7344 Q70.6563,259.7344 69.3281,258.0938 Q68.0156,256.4375 68.0156,253.3125 Q68.0156,250.1875 69.3281,248.5313 Q70.6563,246.875 73.1563,246.875 Q73.8594,246.875 74.5,247.0313 Q75.1563,247.1875 75.7188,247.4844 L75.7188,250.2031 Q75.0938,249.625 74.5,249.3594 Q73.9063,249.0781 73.2813,249.0781 Q71.9375,249.0781 71.25,250.1563 Q70.5625,251.2188 70.5625,253.3125 Q70.5625,255.4063 71.25,256.4844 Q71.9375,257.5469 73.2813,257.5469 Q73.9063,257.5469 74.5,257.2813 Q75.0938,257 75.7188,256.4219 L75.7188,259.1406 Z "/><text fill="#000000" font-family="sans-serif" font-size="12" lengthAdjust="spacingAndGlyphs" textLength="118" x="91.25" y="258.156">OrderedFirstSampler</text><line style="stroke: #A80036; stroke-width: 1.5;" x1="38.5" x2="231.5" y1="269.5" y2="269.5"/><line style="stroke: #A80036; stroke-width: 1.5;" x1="38.5" x2="231.5" y1="277.5" y2="277.5"/><ellipse cx="48.5" cy="288.5" fill="#84BE84" rx="3" ry="3" style="stroke: #038048; stroke-width: 1.0;"/><text fill="#000000" font-family="sans-serif" font-size="11" lengthAdjust="spacingAndGlyphs" textLength="169" x="57.5" y="293.2589">List&lt;T&gt; sample(Collection&lt;T&gt;,int)</text><!--MD5=[17350cb99dda22afc136b5bb8d5a0c0a]
class edu.kit.kastel.sdq.lissa.ratlr.promptoptimizer.samplestrategy.FirstSampler--><rect fill="#FEFECE" filter="url(#f6ojpxgpd955)" height="62.9819" id="edu.kit.kastel.sdq.lissa.ratlr.promptoptimizer.samplestrategy.FirstSampler" style="stroke: #A80036; stroke-width: 1.5;" width="195" x="267.5" y="237.5"/><ellipse cx="325.25" cy="253.5" fill="#ADD1B2" rx="11" ry="11" style="stroke: #A80036; stroke-width: 1.0;"/><path d="M328.2188,259.1406 Q327.6406,259.4375 327,259.5781 Q326.3594,259.7344 325.6563,259.7344 Q323.1563,259.7344 321.8281,258.0938 Q320.5156,256.4375 320.5156,253.3125 Q320.5156,250.1875 321.8281,248.5313 Q323.1563,246.875 325.6563,246.875 Q326.3594,246.875 327,247.0313 Q327.6563,247.1875 328.2188,247.4844 L328.2188,250.2031 Q327.5938,249.625 327,249.3594 Q326.4063,249.0781 325.7813,249.0781 Q324.4375,249.0781 323.75,250.1563 Q323.0625,251.2188 323.0625,253.3125 Q323.0625,255.4063 323.75,256.4844 Q324.4375,257.5469 325.7813,257.5469 Q326.4063,257.5469 327,257.2813 Q327.5938,257 328.2188,256.4219 L328.2188,259.1406 Z "/><text fill="#000000" font-family="sans-serif" font-size="12" lengthAdjust="spacingAndGlyphs" textLength="71" x="345.75" y="258.156">FirstSampler</text><line style="stroke: #A80036; stroke-width: 1.5;" x1="268.5" x2="461.5" y1="269.5" y2="269.5"/><line style="stroke: #A80036; stroke-width: 1.5;" x1="268.5" x2="461.5" y1="277.5" y2="277.5"/><ellipse cx="278.5" cy="288.5" fill="#84BE84" rx="3" ry="3" style="stroke: #038048; stroke-width: 1.0;"/><text fill="#000000" font-family="sans-serif" font-size="11" lengthAdjust="spacingAndGlyphs" textLength="169" x="287.5" y="293.2589">List&lt;T&gt; sample(Collection&lt;T&gt;,int)</text><!--MD5=[0a24da9b1981f405b0adcb84d90168f4]
class edu.kit.kastel.sdq.lissa.ratlr.promptoptimizer.samplestrategy.SampleStrategy--><rect fill="#FEFECE" filter="url(#f6ojpxgpd955)" height="62.9819" id="edu.kit.kastel.sdq.lissa.ratlr.promptoptimizer.samplestrategy.SampleStrategy" style="stroke: #A80036; stroke-width: 1.5;" width="195" x="231.5" y="84.5"/><ellipse cx="282.25" cy="100.5" fill="#B4A7E5" rx="11" ry="11" style="stroke: #A80036; stroke-width: 1.0;"/><path d="M278.1719,96.2656 L278.1719,94.1094 L285.5625,94.1094 L285.5625,96.2656 L283.0938,96.2656 L283.0938,104.3438 L285.5625,104.3438 L285.5625,106.5 L278.1719,106.5 L278.1719,104.3438 L280.6406,104.3438 L280.6406,96.2656 L278.1719,96.2656 Z "/><text fill="#000000" font-family="sans-serif" font-size="12" font-style="italic" lengthAdjust="spacingAndGlyphs" textLength="85" x="302.75" y="105.156">SampleStrategy</text><line style="stroke: #A80036; stroke-width: 1.5;" x1="232.5" x2="425.5" y1="116.5" y2="116.5"/><line style="stroke: #A80036; stroke-width: 1.5;" x1="232.5" x2="425.5" y1="124.5" y2="124.5"/><polygon fill="#4177AF" points="242.5,131.5,238.5,137.5,246.5,137.5" style="stroke: #1963A0; stroke-width: 1.0;"/><text fill="#000000" font-family="sans-serif" font-size="11" lengthAdjust="spacingAndGlyphs" textLength="169" x="251.5" y="140.2589">List&lt;T&gt; sample(Collection&lt;T&gt;,int)</text><!--MD5=[accafc28ae84ab01ef9f4a51628c2c8f]
class edu.kit.kastel.sdq.lissa.ratlr.promptoptimizer.samplestrategy.ShuffledFirstSampler--><rect fill="#FEFECE" filter="url(#f6ojpxgpd955)" height="77.9638" id="edu.kit.kastel.sdq.lissa.ratlr.promptoptimizer.samplestrategy.ShuffledFirstSampler" style="stroke: #A80036; stroke-width: 1.5;" width="289" x="497.5" y="230"/><ellipse cx="579.25" cy="246" fill="#ADD1B2" rx="11" ry="11" style="stroke: #A80036; stroke-width: 1.0;"/><path d="M582.2188,251.6406 Q581.6406,251.9375 581,252.0781 Q580.3594,252.2344 579.6563,252.2344 Q577.1563,252.2344 575.8281,250.5938 Q574.5156,248.9375 574.5156,245.8125 Q574.5156,242.6875 575.8281,241.0313 Q577.1563,239.375 579.6563,239.375 Q580.3594,239.375 581,239.5313 Q581.6563,239.6875 582.2188,239.9844 L582.2188,242.7031 Q581.5938,242.125 581,241.8594 Q580.4063,241.5781 579.7813,241.5781 Q578.4375,241.5781 577.75,242.6563 Q577.0625,243.7188 577.0625,245.8125 Q577.0625,247.9063 577.75,248.9844 Q578.4375,250.0469 579.7813,250.0469 Q580.4063,250.0469 581,249.7813 Q581.5938,249.5 582.2188,248.9219 L582.2188,251.6406 Z "/><text fill="#000000" font-family="sans-serif" font-size="12" lengthAdjust="spacingAndGlyphs" textLength="117" x="599.75" y="250.656">ShuffledFirstSampler</text><line style="stroke: #A80036; stroke-width: 1.5;" x1="498.5" x2="785.5" y1="262" y2="262"/><line style="stroke: #A80036; stroke-width: 1.5;" x1="498.5" x2="785.5" y1="270" y2="270"/><ellipse cx="508.5" cy="281" fill="#84BE84" rx="3" ry="3" style="stroke: #038048; stroke-width: 1.0;"/><text fill="#000000" font-family="sans-serif" font-size="11" lengthAdjust="spacingAndGlyphs" textLength="263" x="517.5" y="285.7589">«Create» ShuffledFirstSampler(RandomGenerator)</text><ellipse cx="508.5" cy="295.9819" fill="#84BE84" rx="3" ry="3" style="stroke: #038048; stroke-width: 1.0;"/><text fill="#000000" font-family="sans-serif" font-size="11" lengthAdjust="spacingAndGlyphs" textLength="169" x="517.5" y="300.7408">List&lt;T&gt; sample(Collection&lt;T&gt;,int)</text><!--MD5=[84fb3b281a39f7bbe6fb0b814fddbfcc]
reverse link edu.kit.kastel.sdq.lissa.ratlr.promptoptimizer.samplestrategy.SampleStrategy to edu.kit.kastel.sdq.lissa.ratlr.promptoptimizer.samplestrategy.OrderedFirstSampler--><path d="M273.88,159.9 C242.08,184.65 202.85,215.19 174.2,237.49 " fill="none" id="edu.kit.kastel.sdq.lissa.ratlr.promptoptimizer.samplestrategy.SampleStrategy&lt;-edu.kit.kastel.sdq.lissa.ratlr.promptoptimizer.samplestrategy.OrderedFirstSampler" style="stroke: #A80036; stroke-width: 1.0; stroke-dasharray: 7.0,7.0;"/><polygon fill="none" points="269.66,154.32,289.74,147.56,278.26,165.37,269.66,154.32" style="stroke: #A80036; stroke-width: 1.0;"/><!--MD5=[6fb5ce31d1e098e3b7de993b1a3480a4]
reverse link edu.kit.kastel.sdq.lissa.ratlr.promptoptimizer.samplestrategy.SampleStrategy to edu.kit.kastel.sdq.lissa.ratlr.promptoptimizer.samplestrategy.FirstSampler--><path d="M340.97,167.2 C346.51,190.46 352.92,217.34 357.73,237.49 " fill="none" id="edu.kit.kastel.sdq.lissa.ratlr.promptoptimizer.samplestrategy.SampleStrategy&lt;-edu.kit.kastel.sdq.lissa.ratlr.promptoptimizer.samplestrategy.FirstSampler" style="stroke: #A80036; stroke-width: 1.0; stroke-dasharray: 7.0,7.0;"/><polygon fill="none" points="334.11,168.64,336.29,147.56,347.73,165.39,334.11,168.64" style="stroke: #A80036; stroke-width: 1.0;"/><!--MD5=[b482042836da47bc99fe036eb15acf7b]
reverse link edu.kit.kastel.sdq.lissa.ratlr.promptoptimizer.samplestrategy.SampleStrategy to edu.kit.kastel.sdq.lissa.ratlr.promptoptimizer.samplestrategy.ShuffledFirstSampler--><path d="M410.42,156.28 C457.53,179 516.53,207.47 563.19,229.98 " fill="none" id="edu.kit.kastel.sdq.lissa.ratlr.promptoptimizer.samplestrategy.SampleStrategy&lt;-edu.kit.kastel.sdq.lissa.ratlr.promptoptimizer.samplestrategy.ShuffledFirstSampler" style="stroke: #A80036; stroke-width: 1.0; stroke-dasharray: 7.0,7.0;"/><polygon fill="none" points="407.31,162.55,392.34,147.56,413.4,149.94,407.31,162.55" style="stroke: #A80036; stroke-width: 1.0;"/><!--MD5=[b5aa69de50d7f91f3fd31af24905760d]
@startuml
class edu.kit.kastel.sdq.lissa.ratlr.promptoptimizer.samplestrategy.SamplerFactory {
+ {static} String FIRST_SAMPLER
+ {static} String ORDERED_SAMPLER
+ {static} String SHUFFLED_SAMPLER
+ {static} SampleStrategy createSampler(String,RandomGenerator)
}


class edu.kit.kastel.sdq.lissa.ratlr.promptoptimizer.samplestrategy.OrderedFirstSampler {
+ List<T> sample(Collection<T>,int)
}

class edu.kit.kastel.sdq.lissa.ratlr.promptoptimizer.samplestrategy.FirstSampler {
+ List<T> sample(Collection<T>,int)
}

interface edu.kit.kastel.sdq.lissa.ratlr.promptoptimizer.samplestrategy.SampleStrategy {
~ List<T> sample(Collection<T>,int)
}

class edu.kit.kastel.sdq.lissa.ratlr.promptoptimizer.samplestrategy.ShuffledFirstSampler {
+ <<Create>> ShuffledFirstSampler(RandomGenerator)
+ List<T> sample(Collection<T>,int)
}



edu.kit.kastel.sdq.lissa.ratlr.promptoptimizer.samplestrategy.SampleStrategy <|.. edu.kit.kastel.sdq.lissa.ratlr.promptoptimizer.samplestrategy.OrderedFirstSampler
edu.kit.kastel.sdq.lissa.ratlr.promptoptimizer.samplestrategy.SampleStrategy <|.. edu.kit.kastel.sdq.lissa.ratlr.promptoptimizer.samplestrategy.FirstSampler
edu.kit.kastel.sdq.lissa.ratlr.promptoptimizer.samplestrategy.SampleStrategy <|.. edu.kit.kastel.sdq.lissa.ratlr.promptoptimizer.samplestrategy.ShuffledFirstSampler
@enduml

PlantUML version 1.2020.02(Sun Mar 01 11:22:07 CET 2020)
(GPL source distribution)
Java Runtime: OpenJDK Runtime Environment
JVM: OpenJDK 64-Bit Server VM
Java Version: 21.0.8+9-Ubuntu-0ubuntu124.04.1
Operating System: Linux
Default Encoding: UTF-8
Language: en
Country: null
--></g></svg>